<svg xmlns="http://www.w3.org/2000/svg" viewBox="0 0 52.74 60"><defs><style>.cls-1{fill:#fe9923;}.cls-2{fill:#fd4e26;}.cls-3{fill:#fd3018;}.cls-4{fill:#fe8821;}.cls-5{fill:#fedbab;}.cls-6{fill:#fec478;}</style></defs><g id="Layer_2" data-name="Layer 2"><g id="Layer_1-2" data-name="Layer 1"><path class="cls-1" d="M51.33,52.83A13.67,13.67,0,0,1,39.09,60H28.48a6.19,6.19,0,0,1-2.11-.35,6.89,6.89,0,0,1-3.48-11.36,1.73,1.73,0,0,1,2.49-.14l1-1.09,16.8-18.64a1.78,1.78,0,0,1,2.36.81L51.36,41A13.25,13.25,0,0,1,51.33,52.83Z"/><path class="cls-2" d="M28.12,1.76V8.91a1.76,1.76,0,0,1-3.51,0V1.76a1.76,1.76,0,1,1,3.51,0Z"/><path class="cls-3" d="M44.41,15.94A1.76,1.76,0,0,1,44,12.48l6.56-1.76a1.76,1.76,0,0,1,.91,3.4l-6.56,1.76A1.82,1.82,0,0,1,44.41,15.94Z"/><path class="cls-2" d="M8.79,15.94a1.88,1.88,0,0,1-.46-.06L1.77,14.12a1.76,1.76,0,0,1,.91-3.4l6.56,1.76a1.76,1.76,0,0,1-.45,3.46Z"/><path class="cls-2" d="M15.82,10.66a1.75,1.75,0,0,1-1.24-.51L11.06,6.63a1.76,1.76,0,1,1,2.49-2.48l3.51,3.51a1.76,1.76,0,0,1-1.24,3Z"/><path class="cls-3" d="M36.91,10.66a1.76,1.76,0,0,1-1.24-3l3.52-3.51a1.75,1.75,0,0,1,2.48,2.48l-3.51,3.52A1.79,1.79,0,0,1,36.91,10.66Z"/><path class="cls-3" d="M26.37,10.66V0a1.74,1.74,0,0,1,1.75,1.76V8.91A1.73,1.73,0,0,1,26.37,10.66Z"/><path class="cls-4" d="M51.33,52.83A13.67,13.67,0,0,1,39.09,60H28.48a6.19,6.19,0,0,1-2.11-.35V47.06l16.8-18.64a1.78,1.78,0,0,1,2.36.81L51.36,41A13.25,13.25,0,0,1,51.33,52.83Z"/><path class="cls-5" d="M45.7,24.73V45.94a7,7,0,0,1-12.3,4.64A7,7,0,0,1,28.12,53a5.74,5.74,0,0,1-1.75-.25,6.93,6.93,0,0,1-3.52-2.14,7,7,0,0,1-10.55,0A7,7,0,0,1,0,45.94V28.24a7,7,0,0,1,7-7,6.8,6.8,0,0,1,3.87,1.16,6.89,6.89,0,0,1,6.68-4.64,7.37,7.37,0,0,1,3.9,1.13,7,7,0,0,1,4.89-4.43,5.74,5.74,0,0,1,1.75-.25,7.06,7.06,0,0,1,6.65,4.71,6.93,6.93,0,0,1,3.9-1.19A7.09,7.09,0,0,1,45.7,24.73Z"/><path class="cls-6" d="M45.7,24.73V45.94a7,7,0,0,1-12.3,4.64A7,7,0,0,1,28.12,53a5.74,5.74,0,0,1-1.75-.25V14.43a5.74,5.74,0,0,1,1.75-.25,7.06,7.06,0,0,1,6.65,4.71,6.93,6.93,0,0,1,3.9-1.19A7.09,7.09,0,0,1,45.7,24.73Z"/></g></g></svg>