<svg xmlns="http://www.w3.org/2000/svg" viewBox="0 0 108 118.07"><defs><style>.cls-1{fill:#55696e;}.cls-2{fill:#3f4a4a;}.cls-3{fill:#2d2d2d;}.cls-4{fill:#2becfd;}.cls-5{fill:#2bd1fd;}.cls-6{fill:#2bb9fd;}.cls-7{fill:#ffc250;}.cls-8{fill:#ebb044;}.cls-9{fill:#ffd064;}.cls-10{fill:#ffe07d;}</style></defs><g id="Layer_2" data-name="Layer 2"><g id="Layer_1-2" data-name="Layer 1"><path class="cls-1" d="M25.41,12.71l-3.17,2.11-3.18-2.11V0h6.35Z"/><path class="cls-1" d="M38.12,12.71l-3.18,2.11-3.18-2.11V0h6.36Z"/><path class="cls-1" d="M50.82,12.71l-3.17,2.11-3.18-2.11V0h6.35Z"/><path class="cls-2" d="M63.53,12.71l-3.18,2.11-3.17-2.11V0h6.35Z"/><path class="cls-2" d="M76.24,12.71l-3.18,2.11-3.18-2.11V0h6.36Z"/><path class="cls-2" d="M88.94,12.71l-3.18,2.11-3.17-2.11V0h6.35Z"/><path class="cls-1" d="M44.47,95.29l3.18-2.11,3.17,2.11V108H44.47Z"/><path class="cls-1" d="M31.76,95.29l3.18-2.11,3.18,2.11V108H31.76Z"/><path class="cls-1" d="M19.06,95.29l3.18-2.11,3.17,2.11V108H19.06Z"/><path class="cls-2" d="M82.59,95.29l3.17-2.11,3.18,2.11V108H82.59Z"/><path class="cls-2" d="M69.88,95.29l3.18-2.11,3.18,2.11V108H69.88Z"/><path class="cls-2" d="M57.18,95.29l3.17-2.11,3.18,2.11V108H57.18Z"/><path class="cls-2" d="M12.71,25.41H0V19.06H12.71l2.11,3.18Z"/><path class="cls-2" d="M12.71,38.12H0V31.76H12.71l2.11,3.18Z"/><path class="cls-2" d="M12.71,50.82H0V44.47H12.71l2.11,3.18Z"/><path class="cls-2" d="M12.71,63.53H0V57.18H12.71l2.11,3.17Z"/><path class="cls-2" d="M12.71,76.24H0V69.88H12.71l2.11,3.18Z"/><path class="cls-2" d="M12.71,88.94H0V82.59H12.71l2.11,3.17Z"/><path class="cls-3" d="M95.29,25.41H108V19.06H95.29l-3.17,3.18Z"/><path class="cls-3" d="M95.29,38.12H108V31.76H95.29l-3.17,3.18Z"/><path class="cls-3" d="M95.29,50.82H108V44.47H95.29l-3.17,3.18Z"/><path class="cls-3" d="M95.29,63.53H108V57.18H95.29l-3.17,3.17Z"/><path class="cls-3" d="M95.29,76.24H108V69.88H95.29l-3.17,3.18Z"/><path class="cls-3" d="M95.29,88.94H108V82.59H95.29l-3.17,3.17Z"/><path class="cls-4" d="M41.29,12.71,12.71,41.29V66.71L41.29,95.29H54L56.12,54,54,12.71Z"/><path class="cls-5" d="M38.12,38.12V69.88H54L57.18,54,54,38.12Z"/><path class="cls-4" d="M50.82,50.82v6.36H54L56.12,54,54,50.82Z"/><path class="cls-5" d="M28.59,28.59h12.7V12.71H12.71V41.29H28.59Z"/><path class="cls-5" d="M28.59,79.41V66.71H12.71V95.29H41.29V79.41Z"/><path class="cls-5" d="M95.29,66.71V41.29L66.71,12.71H54V95.29H66.71Z"/><path class="cls-6" d="M66.71,28.59h12.7v12.7H95.29V12.71H66.71Z"/><path class="cls-6" d="M79.41,79.41H66.71V95.29H95.29V66.71H79.41Z"/><path class="cls-6" d="M69.88,38.12H54V69.88H69.88Z"/><path class="cls-5" d="M54,50.82h3.18v6.36H54Z"/><path class="cls-7" d="M89.56,109A3.65,3.65,0,0,0,86,106l-.23-.25h-7.8l-.49.25a3.65,3.65,0,0,0-3.61,3,6,6,0,0,1-2.66,3.9l.6.39H91.64l.58-.39a6,6,0,0,1-2.66-3.9Z"/><path class="cls-8" d="M79.82,109c.21-1.74,1.24-3,2.43-3l.34-.25H77.92l-.49.25a3.65,3.65,0,0,0-3.61,3,6,6,0,0,1-2.66,3.9l.6.39h6.67l-.4-.39a6.71,6.71,0,0,0,1.79-3.9Z"/><path class="cls-9" d="M94.35,112.91H69a2,2,0,0,0-2,2v1.14a2,2,0,0,0,2,2H94.35a2,2,0,0,0,2-2v-1.14A2,2,0,0,0,94.35,112.91Z"/><path class="cls-9" d="M94.35,112.91H78.53a2,2,0,0,0-2,2v1.14a2,2,0,0,0,2,2H94.35a2,2,0,0,0,2-2v-1.14a2,2,0,0,0-2-2Z"/><path class="cls-7" d="M76.87,116.06v-1.14a2,2,0,0,1,2-2H69a2,2,0,0,0-2,2v1.14a2,2,0,0,0,2,2h9.86A2,2,0,0,1,76.87,116.06Z"/><path class="cls-10" d="M85.62,106a3.34,3.34,0,0,0,3.3-3.5,12.79,12.79,0,0,1,1-5.62c2-4.83,4.1-12.58-.2-17.87C84.91,73.14,76.77,75,74,75.08a.54.54,0,0,0-.42.86l1.5,2a1.35,1.35,0,0,1,0,1.59L74,81.09a3.31,3.31,0,0,0-.6,1.37l-.11.51a3.44,3.44,0,0,1-.89,1.72L69.25,88a1.49,1.49,0,0,0,.36,2.31l.48.26a2.34,2.34,0,0,0,1.47.26L73,90.59a.27.27,0,0,1,.32.28.36.36,0,0,0,.55.3l2.39-1.57a3.08,3.08,0,0,1,1.64-.48,4.08,4.08,0,0,0,2.67-1,.81.81,0,0,1,1.33.46c.31,1.52-.15,4.17-5.15,7a6.53,6.53,0,0,0-3.21,6.82v0a4.35,4.35,0,0,0,4.29,3.5Z"/><path class="cls-9" d="M73.84,91.17l.86-.57-.14-.06-.48-.26A1.48,1.48,0,0,1,73.73,88l3.12-3.28A3.5,3.5,0,0,0,77.73,83l.11-.51a3.44,3.44,0,0,1,.6-1.37l1.11-1.53a1.34,1.34,0,0,0,0-1.59l-1.82-2.5a.55.55,0,0,1,0-.69c-1.58.09-2.91.28-3.75.3a.54.54,0,0,0-.42.86l1.5,2a1.34,1.34,0,0,1,0,1.59L74,81.09a3.31,3.31,0,0,0-.6,1.37l-.11.51a3.44,3.44,0,0,1-.89,1.72L69.25,88a1.49,1.49,0,0,0,.36,2.31l.48.26a2.34,2.34,0,0,0,1.47.26L73,90.59a.27.27,0,0,1,.32.28.36.36,0,0,0,.55.3Z"/><path class="cls-9" d="M78,102.51v0a6.54,6.54,0,0,1,3.21-6.82c3-1.71,5.2-3.76,5.21-6.38a1.73,1.73,0,0,0-2.72-1.41L81.93,89c.13,1.56-.65,4-5.21,6.61a6.53,6.53,0,0,0-3.21,6.82v0a4.35,4.35,0,0,0,4.29,3.5h4.47a4.35,4.35,0,0,1-4.29-3.5Z"/><path class="cls-8" d="M77.61,85.07A1.35,1.35,0,0,1,77,82.55l1.53-.86A1.34,1.34,0,0,1,79.8,84l-1.53.87a1.41,1.41,0,0,1-.66.17Z"/></g></g></svg>