<svg xmlns="http://www.w3.org/2000/svg" viewBox="0 0 131.39 137.63"><defs><style>.cls-1{fill:#dbedff;}.cls-2{fill:#b5dcff;}.cls-3{fill:#407093;}.cls-4{fill:#365e7d;}.cls-5{fill:#ffc250;}.cls-6{fill:#ebb044;}.cls-7{fill:#ffd064;}.cls-8{fill:#ffe07d;}.cls-9{fill:#307dd8;}.cls-10{fill:#4285f4;}.cls-11{fill:#e9f0ff;}.cls-12{fill:#d4e5fd;}</style></defs><g id="Layer_2" data-name="Layer 2"><g id="Layer_1-2" data-name="Layer 1"><g id="Layer_2-2" data-name="Layer 2"><g id="Layer_1-2-2" data-name="Layer 1-2"><path class="cls-1" d="M102.52,47.94V25.37a3.06,3.06,0,0,0-3.06-3.06H76.89l-3.37,1.6H53.74l-2.48-1.6H25.63L0,47.94V73.57l3.09,3.16V95.92L0,99.2v22.57a3.06,3.06,0,0,0,3.06,3.06H25.63L29,122H47.8l3.46,2.79H76.89L102.52,99.2V73.57l-3.28-3.76V50.25Z"/><path class="cls-2" d="M16.14,124.83a9.62,9.62,0,0,1-.2-2V32L0,47.94V73.57l3.09,3.16V95.92L0,99.2v22.57a3.06,3.06,0,0,0,3.06,3.06Z"/><path class="cls-3" d="M0,73.57H25.63V99.2H0Z"/><path class="cls-4" d="M0,73.57H15.94V99.2H0Z"/><path class="cls-3" d="M51.26,73.57H76.89V99.2H51.26Z"/><path class="cls-3" d="M25.63,47.94H51.26V73.57H25.63Z"/><path class="cls-3" d="M76.89,47.94h25.63V73.57H76.89Z"/><path class="cls-3" d="M51.26,22.31H76.89V47.94H51.26Z"/><path class="cls-3" d="M76.89,124.83h23.38a2.25,2.25,0,0,0,2.25-2.25V99.2H76.89Z"/><path class="cls-3" d="M0,24.55V47.94H25.63V22.31H2.24A2.24,2.24,0,0,0,0,24.55Z"/><path class="cls-4" d="M15.94,24.31a9.49,9.49,0,0,1,.2-2H2.24A2.24,2.24,0,0,0,0,24.55V47.94H15.94Z"/><path class="cls-3" d="M25.63,99.2H51.26v25.63H25.63Z"/><path class="cls-5" d="M97.11,128.58a3.67,3.67,0,0,0-3.61-3l-.23-.24h-7.8l-.49.24a3.68,3.68,0,0,0-3.62,3,6,6,0,0,1-2.65,3.89l.6.4H99.19l.58-.4A6,6,0,0,1,97.11,128.58Z"/><path class="cls-6" d="M87.37,128.58c.2-1.74,1.24-3,2.43-3l.34-.24H85.47l-.49.24a3.68,3.68,0,0,0-3.62,3,6,6,0,0,1-2.65,3.89l.6.4H86l-.4-.4a6.68,6.68,0,0,0,1.79-3.89Z"/><path class="cls-7" d="M101.89,132.47H76.58a2,2,0,0,0-2,2v1.13a2,2,0,0,0,2,2h25.31a2,2,0,0,0,2-2v-1.13A2,2,0,0,0,101.89,132.47Z"/><path class="cls-7" d="M101.89,132.47H86.07a2,2,0,0,0-2,2v1.13a2,2,0,0,0,2,2h15.82a2,2,0,0,0,2-2v-1.13A2,2,0,0,0,101.89,132.47Z"/><path class="cls-5" d="M84.42,135.63v-1.14a2,2,0,0,1,2-2H76.58a2,2,0,0,0-2,2v1.14a2,2,0,0,0,2,2h9.85a2,2,0,0,1-2-2Z"/><path class="cls-8" d="M93.17,125.57a3.33,3.33,0,0,0,3.3-3.36v-.13a12.62,12.62,0,0,1,1-5.63c2-4.82,4.1-12.57-.2-17.86-4.78-5.88-12.91-4-15.68-4a.55.55,0,0,0-.53.56.57.57,0,0,0,.1.31l1.5,2a1.34,1.34,0,0,1,0,1.59l-1.12,1.53a3.54,3.54,0,0,0-.6,1.36l-.1.52a3.53,3.53,0,0,1-.89,1.71l-3.15,3.37a1.46,1.46,0,0,0,.06,2.07,1.33,1.33,0,0,0,.3.23l.48.26a2.42,2.42,0,0,0,1.47.27l1.4-.21a.28.28,0,0,1,.33.22v.06a.35.35,0,0,0,.35.35.36.36,0,0,0,.2-.06l2.39-1.56a2.91,2.91,0,0,1,1.64-.48,4,4,0,0,0,2.66-1,.82.82,0,0,1,1.16.08.89.89,0,0,1,.18.38c.31,1.52-.15,4.16-5.15,7A6.51,6.51,0,0,0,81.06,122h0a4.33,4.33,0,0,0,4.29,3.5Z"/><path class="cls-7" d="M81.39,110.73l.85-.56-.13-.07-.48-.26a1.48,1.48,0,0,1-.58-2,1.29,1.29,0,0,1,.22-.3l3.12-3.29a3.53,3.53,0,0,0,.89-1.71l.1-.52a3.37,3.37,0,0,1,.62-1.36l1.11-1.53a1.34,1.34,0,0,0,0-1.59L85.28,95a.54.54,0,0,1,0-.68c-1.58.09-2.91.27-3.75.29a.55.55,0,0,0-.53.56.57.57,0,0,0,.1.31l1.5,2a1.34,1.34,0,0,1,0,1.59l-1.12,1.53a3.54,3.54,0,0,0-.6,1.36l-.1.52a3.53,3.53,0,0,1-.89,1.71l-3.09,3.32a1.46,1.46,0,0,0,.06,2.07,1.33,1.33,0,0,0,.3.23l.48.26a2.42,2.42,0,0,0,1.47.27l1.4-.21a.28.28,0,0,1,.33.22v.06a.35.35,0,0,0,.35.35.36.36,0,0,0,.2-.06Z"/><path class="cls-7" d="M85.54,122.07h0a6.51,6.51,0,0,1,3.21-6.82c3-1.71,5.2-3.76,5.21-6.38a1.73,1.73,0,0,0-2.72-1.42l-1.76,1.16c.13,1.56-.66,4-5.21,6.61A6.51,6.51,0,0,0,81.06,122h0a4.33,4.33,0,0,0,4.29,3.5h4.47a4.33,4.33,0,0,1-4.29-3.5Z"/><path class="cls-6" d="M85.16,104.64a1.36,1.36,0,0,1-1.34-1.37,1.38,1.38,0,0,1,.68-1.15l1.5-.81a1.35,1.35,0,1,1,1.52,2.23l-.19.11-1.53.86a1.51,1.51,0,0,1-.66.18Z"/></g></g><path d="M103.85,10.18a19.5,19.5,0,1,0,19.5,19.5A19.53,19.53,0,0,0,103.85,10.18Z"/><path d="M99.83,19.25h8V40.11h-8Z"/><path d="M93.42,25.66h20.86v8H93.42Z"/><path class="cls-9" d="M131.39,27.5A27.54,27.54,0,0,0,103.89,0L98.12,25.85,103.89,55A27.54,27.54,0,0,0,131.39,27.5Z"/><path class="cls-10" d="M103.89,55V0a27.5,27.5,0,1,0,0,55Z"/><path class="cls-11" d="M108.2,27.2a6.48,6.48,0,0,0-1.56-2.45A6.64,6.64,0,0,0,98.15,24a5.85,5.85,0,0,0-.9.76l-3.41,3.4a6.64,6.64,0,0,0,9.4,9.39l3.4-3.4a6.66,6.66,0,0,0,2-4.69,6.62,6.62,0,0,0-.39-2.25Zm-7.13,8.18A3.58,3.58,0,1,1,96,30.32L98.3,28l1.11-1.12a3.61,3.61,0,0,1,5.07,0,3.59,3.59,0,0,1,0,5.07l-.43.42Z"/><path class="cls-12" d="M98.15,24a6.64,6.64,0,0,0,.15,4l1.11-1.12A3.59,3.59,0,0,1,101,26a3.58,3.58,0,0,1,1-2.75l.43-.43A6.68,6.68,0,0,0,98.15,24Z"/><path class="cls-11" d="M94.7,29l3.41-3.4a6.63,6.63,0,0,1,8.94-.41,4.38,4.38,0,0,0-.41-.45,6.63,6.63,0,0,0-9.39,0l-3.4,3.4a6.63,6.63,0,0,0,0,9.39,3.47,3.47,0,0,0,.45.41A6.63,6.63,0,0,1,94.7,29Z"/><path class="cls-12" d="M113.93,17.46a6.63,6.63,0,0,0-9.39,0l-3.4,3.4a6.63,6.63,0,0,0,0,9.39,6.49,6.49,0,0,0,2.36,1.53,6.8,6.8,0,0,0,3.37.34,6.62,6.62,0,0,0,3.66-1.87l3.4-3.4a6.63,6.63,0,0,0,0-9.39Zm-2.16,7.22-3.4,3.41a3.57,3.57,0,0,1-4.06.7,3.66,3.66,0,0,1-1-.7,3.6,3.6,0,0,1,0-5.07l3.41-3.4a3.58,3.58,0,1,1,5.06,5.06Z"/><path class="cls-12" d="M107.43,29.45a6.53,6.53,0,0,1-.56,2.67,6.8,6.8,0,0,1-3.37-.34,3.59,3.59,0,0,0,.81-3,3.6,3.6,0,0,0,3.09,0C107.42,29,107.43,29.22,107.43,29.45Z"/><path class="cls-12" d="M109.23,28.94l3.4-3.4a3.59,3.59,0,0,0,0-5.06,4.22,4.22,0,0,0-.47-.39,3.59,3.59,0,0,1-.39,4.6l-3.4,3.4a3.59,3.59,0,0,1-4.6.39,4.31,4.31,0,0,0,.39.46A3.59,3.59,0,0,0,109.23,28.94Z"/><path class="cls-11" d="M108.21,27.24a4,4,0,0,0-3.55-.12,3.58,3.58,0,0,1-.18,4.86l-1.28,1.28a2.89,2.89,0,0,0,.29.32,4,4,0,0,0,2.56,1.16l.59-.6a6.59,6.59,0,0,0,2-4.69A6.71,6.71,0,0,0,108.21,27.24Z"/><path class="cls-11" d="M101.93,36.24l3.4-3.4a3.59,3.59,0,0,0,0-5.07,4.31,4.31,0,0,0-.46-.39,3.59,3.59,0,0,1-.39,4.6l-3.41,3.4a3.57,3.57,0,0,1-4.59.39,5.71,5.71,0,0,0,.39.47,3.59,3.59,0,0,0,5.06,0Z"/><path class="cls-12" d="M102,21.72l3.4-3.41a6.64,6.64,0,0,1,8.94-.41,4.2,4.2,0,0,0-.41-.44,6.63,6.63,0,0,0-9.39,0l-3.4,3.4a6.63,6.63,0,0,0,0,9.39,4.38,4.38,0,0,0,.45.41,6.63,6.63,0,0,1,.41-8.94Z"/></g></g></svg>