<svg xmlns="http://www.w3.org/2000/svg" viewBox="0 0 142.49 127.19"><defs><style>.cls-1{fill:none;}.cls-2{fill:#dbedff;}.cls-3{fill:#b5dcff;}.cls-4{fill:#407093;}.cls-5{fill:#365e7d;}.cls-6{fill:#ffc250;}.cls-7{fill:#ebb044;}.cls-8{fill:#ffd064;}.cls-9{fill:#ffe07d;}.cls-10{fill:#307dd8;}.cls-11{fill:#4285f4;}.cls-12{fill:#e9f0ff;}.cls-13{fill:#d4e5fd;}</style></defs><g id="Layer_2" data-name="Layer 2"><g id="Layer_1-2" data-name="Layer 1"><rect class="cls-1" y="11.48" width="20.39" height="102.5"/><g id="Layer_2-2" data-name="Layer 2-2"><g id="Layer_1-2-2" data-name="Layer 1-2-2"><path class="cls-2" d="M123.53,37.5V14.93a3.06,3.06,0,0,0-3.06-3.06H97.9l-3.37,1.6H74.75l-2.48-1.6H46.64L21,37.5V63.13l3.09,3.16V85.48L21,88.76v22.57a3.06,3.06,0,0,0,3.06,3.06H46.64L50,111.56h18.8l3.46,2.79H97.9l25.63-25.59V63.13l-3.28-3.76V39.81Z"/><path class="cls-3" d="M37.15,114.39a10.36,10.36,0,0,1-.2-2V21.56L21,37.5V63.13l3.09,3.16V85.48L21,88.76v22.57a3.06,3.06,0,0,0,3.06,3.06Z"/><path class="cls-4" d="M21,63.13H46.64V88.76H21Z"/><path class="cls-5" d="M21,63.13H37V88.76H21Z"/><path class="cls-4" d="M72.27,63.13H97.9V88.76H72.27Z"/><path class="cls-4" d="M46.64,37.5H72.27V63.13H46.64Z"/><path class="cls-4" d="M97.9,37.5h25.63V63.13H97.9Z"/><path class="cls-4" d="M72.27,11.87H97.9V37.5H72.27Z"/><path class="cls-4" d="M97.9,114.39h23.38a2.25,2.25,0,0,0,2.25-2.25V88.76H97.9Z"/><path class="cls-4" d="M21,14.11V37.5H46.64V11.87H23.25A2.24,2.24,0,0,0,21,14.11Z"/><path class="cls-5" d="M37,13.87a9.62,9.62,0,0,1,.2-2H23.25A2.24,2.24,0,0,0,21,14.11V37.5H37Z"/><path class="cls-4" d="M46.64,88.76H72.27v25.63H46.64Z"/><path class="cls-6" d="M118.12,118.14a3.67,3.67,0,0,0-3.61-3l-.23-.24h-7.8l-.49.24a3.69,3.69,0,0,0-3.62,3A6,6,0,0,1,99.72,122l.6.4H120.2l.58-.4A6,6,0,0,1,118.12,118.14Z"/><path class="cls-7" d="M108.38,118.14c.2-1.74,1.24-3,2.43-3l.34-.24h-4.67l-.49.24a3.69,3.69,0,0,0-3.62,3A6,6,0,0,1,99.72,122l.6.4H107l-.4-.4a6.65,6.65,0,0,0,1.79-3.89Z"/><path class="cls-8" d="M122.9,122H97.59a2,2,0,0,0-2,2v1.13a2,2,0,0,0,2,2H122.9a2,2,0,0,0,2-2V124A2,2,0,0,0,122.9,122Z"/><path class="cls-8" d="M122.9,122H107.08a2,2,0,0,0-2,2v1.13a2,2,0,0,0,2,2H122.9a2,2,0,0,0,2-2V124A2,2,0,0,0,122.9,122Z"/><path class="cls-6" d="M105.43,125.19v-1.14a2,2,0,0,1,2-2H97.59a2,2,0,0,0-2,2v1.14a2,2,0,0,0,2,2h9.85a2,2,0,0,1-2-2Z"/><path class="cls-9" d="M114.18,115.13a3.33,3.33,0,0,0,3.3-3.36h0v-.13a12.65,12.65,0,0,1,1-5.63c2-4.82,4.1-12.57-.2-17.86-4.78-5.88-12.91-4-15.68-4a.55.55,0,0,0-.53.56.57.57,0,0,0,.1.31l1.5,2a1.34,1.34,0,0,1,0,1.59l-1.12,1.53a3.61,3.61,0,0,0-.6,1.36l-.1.52a3.53,3.53,0,0,1-.89,1.71L97.81,97.1a1.46,1.46,0,0,0,.06,2.06h0a1.33,1.33,0,0,0,.3.23l.48.26a2.43,2.43,0,0,0,1.47.27l1.4-.21a.28.28,0,0,1,.33.22h0V100a.35.35,0,0,0,.35.35.36.36,0,0,0,.2-.06l2.39-1.56a2.91,2.91,0,0,1,1.64-.48,4,4,0,0,0,2.66-1,.82.82,0,0,1,1.16.08h0a.89.89,0,0,1,.18.38c.31,1.52-.15,4.16-5.15,7a6.52,6.52,0,0,0-3.21,6.85h0a4.33,4.33,0,0,0,4.29,3.5Z"/><path class="cls-8" d="M102.4,100.29l.85-.56-.13-.07-.48-.26a1.48,1.48,0,0,1-.58-2,1.29,1.29,0,0,1,.22-.3l3.12-3.29a3.53,3.53,0,0,0,.89-1.71l.1-.52a3.44,3.44,0,0,1,.62-1.36l1.11-1.53a1.34,1.34,0,0,0,0-1.59l-1.83-2.54a.54.54,0,0,1,0-.68c-1.58.09-2.91.27-3.75.29a.55.55,0,0,0-.53.56.57.57,0,0,0,.1.31l1.5,2a1.34,1.34,0,0,1,0,1.59l-1.12,1.53a3.61,3.61,0,0,0-.6,1.36l-.1.52a3.53,3.53,0,0,1-.89,1.71l-3.09,3.32a1.46,1.46,0,0,0,.06,2.06h0a1.33,1.33,0,0,0,.3.23l.48.26a2.43,2.43,0,0,0,1.47.27l1.4-.21a.28.28,0,0,1,.33.22h0V100a.35.35,0,0,0,.35.35.36.36,0,0,0,.2-.06Z"/><path class="cls-8" d="M106.55,111.63h0a6.51,6.51,0,0,1,3.21-6.82c3-1.71,5.2-3.76,5.21-6.38a1.72,1.72,0,0,0-1.73-1.73,1.76,1.76,0,0,0-1,.31l-1.76,1.16c.13,1.56-.66,4-5.21,6.61a6.52,6.52,0,0,0-3.21,6.78h0a4.33,4.33,0,0,0,4.29,3.5h4.47a4.33,4.33,0,0,1-4.29-3.5Z"/><path class="cls-7" d="M106.17,94.2a1.36,1.36,0,0,1-1.34-1.37,1.4,1.4,0,0,1,.68-1.15l1.5-.81a1.35,1.35,0,1,1,1.59,2.18.18.18,0,0,1-.07,0l-.19.11-1.53.86a1.51,1.51,0,0,1-.66.18Z"/></g></g><path d="M115,10.18a19.5,19.5,0,1,0,19.5,19.5A19.5,19.5,0,0,0,115,10.18Z"/><path d="M110.93,19.25h8V40.11h-8Z"/><path d="M104.52,25.66h20.86v8H104.52Z"/><path class="cls-10" d="M142.49,27.5A27.54,27.54,0,0,0,115,0l-5.77,25.85L115,55A27.54,27.54,0,0,0,142.49,27.5Z"/><path class="cls-11" d="M115,55V0a27.5,27.5,0,0,0,0,55Z"/><path class="cls-12" d="M119.3,27.2a6.54,6.54,0,0,0-1.56-2.45,6.64,6.64,0,0,0-8.49-.75,6.47,6.47,0,0,0-.9.76l-3.41,3.4a6.64,6.64,0,1,0,9.4,9.39h0l3.4-3.4a6.55,6.55,0,0,0,1.61-6.94Zm-7.13,8.18a3.58,3.58,0,0,1-5.07-5.06L109.4,28l1.11-1.12A3.59,3.59,0,0,1,115.58,32l-.43.42Z"/><path class="cls-13" d="M109.25,24a6.66,6.66,0,0,0,.15,4l1.11-1.12A3.68,3.68,0,0,1,112.1,26a3.59,3.59,0,0,1,1-2.75l.43-.43A6.65,6.65,0,0,0,109.25,24Z"/><path class="cls-12" d="M105.8,29l3.41-3.4a6.63,6.63,0,0,1,8.94-.41,3.47,3.47,0,0,0-.41-.45,6.62,6.62,0,0,0-9.37,0h0l-3.4,3.4a6.63,6.63,0,0,0,0,9.38h0a3.47,3.47,0,0,0,.45.41A6.63,6.63,0,0,1,105.8,29Z"/><path class="cls-13" d="M125,17.46a6.62,6.62,0,0,0-9.37,0h0l-3.4,3.4a6.63,6.63,0,0,0,0,9.38h0a6.46,6.46,0,0,0,2.36,1.53,6.79,6.79,0,0,0,3.37.34,6.59,6.59,0,0,0,3.66-1.87l3.4-3.4a6.63,6.63,0,0,0,0-9.38Zm-2.16,7.22-3.4,3.41a3.57,3.57,0,0,1-4.06.7,3.68,3.68,0,0,1-1-.7,3.6,3.6,0,0,1,0-5.07l3.41-3.4a3.58,3.58,0,0,1,5.23,4.89c0,.06-.11.11-.17.17Z"/><path class="cls-13" d="M118.53,29.45a6.46,6.46,0,0,1-.56,2.67,6.79,6.79,0,0,1-3.37-.34,3.6,3.6,0,0,0,.81-3,3.63,3.63,0,0,0,3.09,0C118.52,29,118.53,29.22,118.53,29.45Z"/><path class="cls-13" d="M120.33,28.94l3.4-3.4a3.59,3.59,0,0,0,0-5.06,4.42,4.42,0,0,0-.47-.39,3.58,3.58,0,0,1-.39,4.6l-3.4,3.4a3.59,3.59,0,0,1-4.6.39,4.31,4.31,0,0,0,.39.46A3.59,3.59,0,0,0,120.33,28.94Z"/><path class="cls-12" d="M119.31,27.24a4,4,0,0,0-3.55-.12,3.58,3.58,0,0,1-.18,4.86l-1.28,1.28c.09.11.19.22.29.32a4,4,0,0,0,2.56,1.16l.59-.6a6.58,6.58,0,0,0,2-4.69A6.68,6.68,0,0,0,119.31,27.24Z"/><path class="cls-12" d="M113,36.24l3.4-3.4a3.59,3.59,0,0,0,0-5.07,4.31,4.31,0,0,0-.46-.39,3.58,3.58,0,0,1-.39,4.6l-3.41,3.4a3.57,3.57,0,0,1-4.59.39,5.71,5.71,0,0,0,.39.47A3.59,3.59,0,0,0,113,36.24Z"/><path class="cls-13" d="M113.1,21.72l3.4-3.41a6.64,6.64,0,0,1,8.94-.41,3.39,3.39,0,0,0-.41-.44,6.62,6.62,0,0,0-9.37,0h0l-3.4,3.4a6.63,6.63,0,0,0,0,9.38h0a4.38,4.38,0,0,0,.45.41A6.63,6.63,0,0,1,113.1,21.72Z"/></g></g></svg>