<svg xmlns="http://www.w3.org/2000/svg" viewBox="0 0 63.12 63.12"><defs><style>.cls-1{fill:#3b3b54;}.cls-2{fill:#555582;}.cls-3{fill:#de0a46;}.cls-4{fill:#bf0027;}.cls-5{fill:#ffd4b4;}.cls-6{fill:#fbbc94;}.cls-7{fill:#6e6e96;}.cls-8{fill:#ff5a91;}.cls-9{fill:#f32464;}</style></defs><g id="Layer_2" data-name="Layer 2"><g id="Layer_1-2" data-name="Layer 1"><path class="cls-1" d="M30.16,60.5a4.62,4.62,0,0,1-3.27-7.89L37.81,41.69a1.85,1.85,0,0,1,2.58,0l4,3.82a1.86,1.86,0,0,1,0,2.65l-11,11a4.62,4.62,0,0,1-3.27,1.35Z"/><path class="cls-2" d="M52,63.12a4.72,4.72,0,0,1-3.6-1.69L36.54,47.55a10.84,10.84,0,0,1-4.1-8.46,1.86,1.86,0,0,1,1.85-1.86H46.62a1.85,1.85,0,0,1,1.85,1.85V41.6a7.32,7.32,0,0,1-1.22,4l8.3,9.9A4.62,4.62,0,0,1,52,63.12Z"/><path class="cls-1" d="M47.25,45.63a7.32,7.32,0,0,0,1.22-4V39.08a1.85,1.85,0,0,0-1.85-1.85H40.45V52.12l8,9.31A4.72,4.72,0,0,0,52,63.12a4.54,4.54,0,0,0,2.82-1,4.61,4.61,0,0,0,.7-6.61Z"/><path class="cls-3" d="M59.42,17.51H37.49a6.81,6.81,0,0,0-4.8,2L21.09,31.1A3.76,3.76,0,0,0,21,36.31a3.71,3.71,0,0,0,5.31.07l6.17-6.17v8.87h16V24.9H59.35a3.74,3.74,0,0,0,3.76-3.42,3.69,3.69,0,0,0-3.69-4Z"/><path class="cls-4" d="M59.42,17.51h-19V39.08h8V24.9H59.35a3.74,3.74,0,0,0,3.76-3.42,3.69,3.69,0,0,0-3.69-4Z"/><circle class="cls-5" cx="40.47" cy="12.58" r="7.4"/><path class="cls-6" d="M40.45,5.18V20a7.4,7.4,0,1,0,0-14.79Z"/><path class="cls-2" d="M47.23,9.62V1.85A1.85,1.85,0,0,0,45.38,0H35.52a1.85,1.85,0,0,0-1.85,1.85V9.62Z"/><path class="cls-1" d="M45.38,0H40.45V9.62h6.78V1.85A1.85,1.85,0,0,0,45.38,0Z"/><path class="cls-2" d="M10.19,60.5a4.62,4.62,0,0,1-3.27-7.89L17.84,41.69a1.85,1.85,0,0,1,2.58,0l4,3.82a1.85,1.85,0,0,1,0,2.65l-11,11a4.62,4.62,0,0,1-3.27,1.35Z"/><path class="cls-7" d="M32.06,63.12a4.71,4.71,0,0,1-3.6-1.69L16.57,47.55a10.84,10.84,0,0,1-4.1-8.46,1.85,1.85,0,0,1,1.85-1.86H26.64a1.85,1.85,0,0,1,1.85,1.85V41.6a7.24,7.24,0,0,1-1.22,4l8.31,9.9a4.62,4.62,0,0,1-3.52,7.59Z"/><path class="cls-2" d="M27.27,45.63a7.24,7.24,0,0,0,1.22-4V39.08a1.85,1.85,0,0,0-1.85-1.85H20.48V52.12l8,9.31a4.71,4.71,0,0,0,3.6,1.69,4.63,4.63,0,0,0,3.52-7.59Z"/><path class="cls-8" d="M39.45,17.51H17.52a6.79,6.79,0,0,0-4.8,2L1.12,31.1A3.75,3.75,0,0,0,1,36.31a3.71,3.71,0,0,0,5.31.07l6.17-6.17v8.87h16V24.9H39.38a3.74,3.74,0,0,0,3.76-3.42,3.69,3.69,0,0,0-3.69-4Z"/><path class="cls-9" d="M39.45,17.51h-19V39.08h8V24.9H39.38a3.74,3.74,0,0,0,3.76-3.42,3.7,3.7,0,0,0-3.69-4Z"/><circle class="cls-5" cx="20.5" cy="12.58" r="7.4"/><path class="cls-6" d="M20.48,5.18V20a7.4,7.4,0,1,0,0-14.79Z"/><path class="cls-2" d="M27.26,9.62V1.85A1.85,1.85,0,0,0,25.41,0H15.55A1.85,1.85,0,0,0,13.7,1.85V9.62Z"/><path class="cls-1" d="M25.41,0H20.48V9.62h6.78V1.85A1.85,1.85,0,0,0,25.41,0Z"/></g></g></svg>