<svg xmlns="http://www.w3.org/2000/svg" viewBox="0 0 141.39 126.82"><defs><style>.cls-1{fill:#dbedff;}.cls-2{fill:#b5dcff;}.cls-3{fill:#407093;}.cls-4{fill:#365e7d;}.cls-5{fill:#ffc250;}.cls-6{fill:#ebb044;}.cls-7{fill:#ffd064;}.cls-8{fill:#ffe07d;}.cls-9{fill:#307dd8;}.cls-10{fill:#4285f4;}.cls-11{fill:#e9f0ff;}.cls-12{fill:#d4e5fd;}.cls-13{fill:none;}</style></defs><g id="Layer_2" data-name="Layer 2"><g id="Layer_1-2" data-name="Layer 1"><g id="Layer_2-2" data-name="Layer 2-2"><g id="Layer_1-2-2" data-name="Layer 1-2-2"><path class="cls-1" d="M123.23,37.13V14.56a3.06,3.06,0,0,0-3.06-3.06H97.6l-3.37,1.6H74.45L72,11.5H46.34L20.71,37.13V62.76l3.09,3.16V85.11l-3.09,3.28V111a3.07,3.07,0,0,0,3.06,3H46.34l3.37-2.77h18.8L72,114H97.6l25.63-25.63V62.76L120,59V39.44Z"/><path class="cls-2" d="M36.85,114a10.36,10.36,0,0,1-.2-2V21.19L20.71,37.13V62.76l3.09,3.16V85.11l-3.09,3.28V111a3.07,3.07,0,0,0,3.06,3Z"/><path class="cls-3" d="M20.71,62.76H46.34V88.39H20.71Z"/><path class="cls-4" d="M20.71,62.76H36.65V88.39H20.71Z"/><path class="cls-3" d="M72,62.76H97.6V88.39H72Z"/><path class="cls-3" d="M46.34,37.13H72V62.76H46.34Z"/><path class="cls-3" d="M97.6,37.13h25.63V62.76H97.6Z"/><path class="cls-3" d="M72,11.5H97.6V37.13H72Z"/><path class="cls-3" d="M97.6,114H121a2.25,2.25,0,0,0,2.25-2.25V88.39H97.6Z"/><path class="cls-3" d="M20.71,13.74V37.13H46.34V11.5H23A2.24,2.24,0,0,0,20.71,13.74Z"/><path class="cls-4" d="M36.65,13.5a10.36,10.36,0,0,1,.2-2H23a2.24,2.24,0,0,0-2.24,2.24V37.13H36.65Z"/><path class="cls-3" d="M46.34,88.39H72V114H46.34Z"/><path class="cls-5" d="M117.82,117.77a3.67,3.67,0,0,0-3.61-3l-.23-.24h-7.8l-.49.24a3.69,3.69,0,0,0-3.62,3,6,6,0,0,1-2.65,3.89l.6.4H119.9l.58-.4A6,6,0,0,1,117.82,117.77Z"/><path class="cls-6" d="M108.08,117.77c.2-1.74,1.24-3,2.43-3l.34-.24h-4.67l-.49.24a3.69,3.69,0,0,0-3.62,3,6,6,0,0,1-2.65,3.89l.6.4h6.69l-.4-.4a6.62,6.62,0,0,0,1.79-3.89Z"/><path class="cls-7" d="M122.6,121.66H97.29a2,2,0,0,0-2,2v1.13a2,2,0,0,0,2,2H122.6a2,2,0,0,0,2-2v-1.13A2,2,0,0,0,122.6,121.66Z"/><path class="cls-7" d="M122.6,121.66H106.78a2,2,0,0,0-2,2v1.13a2,2,0,0,0,2,2H122.6a2,2,0,0,0,2-2v-1.13A2,2,0,0,0,122.6,121.66Z"/><path class="cls-5" d="M105.13,124.82v-1.14a2,2,0,0,1,2-2H97.29a2,2,0,0,0-2,2v1.14a2,2,0,0,0,2,2h9.85a2,2,0,0,1-2-2Z"/><path class="cls-8" d="M113.88,114.76a3.31,3.31,0,0,0,3.3-3.34v-.15a12.79,12.79,0,0,1,1-5.63c2-4.82,4.1-12.57-.2-17.86-4.78-5.88-12.91-4-15.68-4a.56.56,0,0,0-.53.57h0a.63.63,0,0,0,.1.3l1.5,2a1.34,1.34,0,0,1,0,1.59l-1.12,1.53a3.78,3.78,0,0,0-.6,1.36l-.1.52a3.53,3.53,0,0,1-.89,1.71l-3.15,3.37a1.48,1.48,0,0,0,.06,2.08h0a2.86,2.86,0,0,0,.3.22l.48.26a2.36,2.36,0,0,0,1.47.27l1.4-.21a.28.28,0,0,1,.33.22h0a.35.35,0,0,0,.35.35.32.32,0,0,0,.2-.06l2.39-1.56a2.91,2.91,0,0,1,1.64-.48,4,4,0,0,0,2.66-1,.82.82,0,0,1,1.16.08h0a.79.79,0,0,1,.18.38c.31,1.52-.15,4.16-5.15,7a6.53,6.53,0,0,0-3.21,6.82h0a4.33,4.33,0,0,0,4.29,3.5Z"/><path class="cls-7" d="M102.1,99.92l.85-.56-.13-.07-.48-.26a1.47,1.47,0,0,1-.58-2h0a1.66,1.66,0,0,1,.22-.3l3.12-3.29a3.53,3.53,0,0,0,.89-1.71l.1-.52a3.58,3.58,0,0,1,.62-1.36l1.11-1.53a1.34,1.34,0,0,0,0-1.59L106,84.22a.54.54,0,0,1,0-.68c-1.58.09-2.91.27-3.75.29a.56.56,0,0,0-.53.57h0a.63.63,0,0,0,.1.3l1.5,2a1.34,1.34,0,0,1,0,1.59l-1.12,1.53a3.78,3.78,0,0,0-.6,1.36l-.1.52a3.53,3.53,0,0,1-.89,1.71l-3.09,3.32a1.48,1.48,0,0,0,.06,2.08h0a2.86,2.86,0,0,0,.3.22l.48.26a2.36,2.36,0,0,0,1.47.27l1.4-.21a.28.28,0,0,1,.33.22h0a.35.35,0,0,0,.35.35.32.32,0,0,0,.2-.06Z"/><path class="cls-7" d="M106.25,111.26h0a6.53,6.53,0,0,1,3.21-6.82c3-1.71,5.2-3.76,5.21-6.38a1.73,1.73,0,0,0-1.75-1.72,1.76,1.76,0,0,0-1,.3l-1.76,1.16c.13,1.56-.66,4-5.21,6.61a6.53,6.53,0,0,0-3.21,6.82h0a4.33,4.33,0,0,0,4.29,3.5h4.47a4.33,4.33,0,0,1-4.29-3.5Z"/><path class="cls-6" d="M105.87,93.83a1.36,1.36,0,0,1-1.34-1.36,1.38,1.38,0,0,1,.68-1.16l1.5-.81a1.36,1.36,0,0,1,1.89.3,1.34,1.34,0,0,1-.3,1.88.18.18,0,0,1-.07,0l-.19.11-1.53.86a1.26,1.26,0,0,1-.66.18Z"/></g></g><path d="M113.85,10.18a19.5,19.5,0,1,0,19.5,19.5A19.5,19.5,0,0,0,113.85,10.18Z"/><path d="M109.83,19.25h8V40.11h-8Z"/><path d="M103.42,25.66h20.82v8H103.42Z"/><path class="cls-9" d="M141.39,27.5A27.54,27.54,0,0,0,113.89,0l-5.78,25.85L113.89,55A27.54,27.54,0,0,0,141.39,27.5Z"/><path class="cls-10" d="M113.89,55V0a27.5,27.5,0,1,0,0,55Z"/><path class="cls-11" d="M109.87,16v7.48h-7.48v8h7.48V39h4L117,27.5,113.89,16Z"/><path class="cls-12" d="M117.91,31.52h7.48v-8h-7.48V16h-4V39h4Z"/><rect class="cls-13" y="11.5" width="20.39" height="102.5"/></g></g></svg>