<svg xmlns="http://www.w3.org/2000/svg" viewBox="0 0 139.16 126.82"><defs><style>.cls-1{fill:#dbedff;}.cls-2{fill:#b5dcff;}.cls-3{fill:#407093;}.cls-4{fill:#365e7d;}.cls-5{fill:#ffc250;}.cls-6{fill:#ebb044;}.cls-7{fill:#ffd064;}.cls-8{fill:#ffe07d;}.cls-9{fill:#307dd8;}.cls-10{fill:#4285f4;}.cls-11{fill:#e9f0ff;}.cls-12{fill:#d4e5fd;}.cls-13{fill:none;}</style></defs><g id="Layer_2" data-name="Layer 2"><g id="Layer_1-2" data-name="Layer 1"><g id="Layer_2-2" data-name="Layer 2-2"><g id="Layer_1-2-2" data-name="Layer 1-2-2"><path class="cls-1" d="M121,37.13V14.56a3.06,3.06,0,0,0-3.06-3.06H95.37L92,13.1H72.22l-2.48-1.6H44.11L18.48,37.13V62.76l3.09,3.16V85.11l-3.09,3.28V111a3.05,3.05,0,0,0,3.06,3H44.11l3.37-2.77h18.8L69.74,114H95.37L121,88.37V62.76L117.72,59V39.44Z"/><path class="cls-2" d="M34.62,114a9.62,9.62,0,0,1-.2-2V21.19L18.48,37.13V62.76l3.09,3.16V85.11l-3.09,3.28V111a3.05,3.05,0,0,0,3.06,3Z"/><path class="cls-3" d="M18.48,62.76H44.11V88.39H18.48Z"/><path class="cls-4" d="M18.48,62.76H34.42V88.39H18.48Z"/><path class="cls-3" d="M69.74,62.76H95.37V88.39H69.74Z"/><path class="cls-3" d="M44.11,37.13H69.74V62.76H44.11Z"/><path class="cls-3" d="M95.37,37.13H121V62.76H95.37Z"/><path class="cls-3" d="M69.74,11.5H95.37V37.13H69.74Z"/><path class="cls-3" d="M95.37,114h23.38a2.25,2.25,0,0,0,2.25-2.25V88.39H95.37Z"/><path class="cls-3" d="M18.48,13.74V37.13H44.11V11.5H20.72A2.24,2.24,0,0,0,18.48,13.74Z"/><path class="cls-4" d="M34.42,13.5a9.62,9.62,0,0,1,.2-2H20.72a2.24,2.24,0,0,0-2.24,2.24V37.13H34.42Z"/><path class="cls-3" d="M44.11,88.39H69.74V114H44.11Z"/><path class="cls-5" d="M115.59,117.77a3.67,3.67,0,0,0-3.61-3l-.23-.24H104l-.49.24a3.69,3.69,0,0,0-3.62,3,6,6,0,0,1-2.65,3.89l.6.4h19.88l.58-.4A6,6,0,0,1,115.59,117.77Z"/><path class="cls-6" d="M105.85,117.77c.2-1.74,1.24-3,2.43-3l.34-.24H104l-.49.24a3.69,3.69,0,0,0-3.62,3,6,6,0,0,1-2.65,3.89l.6.4h6.69l-.4-.4a6.62,6.62,0,0,0,1.79-3.89Z"/><path class="cls-7" d="M120.37,121.66H95.06a2,2,0,0,0-2,2v1.13a2,2,0,0,0,2,2h25.31a2,2,0,0,0,2-2v-1.13A2,2,0,0,0,120.37,121.66Z"/><path class="cls-7" d="M120.37,121.66H104.55a2,2,0,0,0-2,2v1.13a2,2,0,0,0,2,2h15.82a2,2,0,0,0,2-2v-1.13A2,2,0,0,0,120.37,121.66Z"/><path class="cls-5" d="M102.9,124.82v-1.14a2,2,0,0,1,2-2H95.06a2,2,0,0,0-2,2v1.14a2,2,0,0,0,2,2h9.85a2,2,0,0,1-2-2Z"/><path class="cls-8" d="M111.65,114.76a3.32,3.32,0,0,0,3.3-3.34v-.15a12.65,12.65,0,0,1,1-5.63c2-4.82,4.1-12.57-.2-17.86-4.78-5.88-12.91-4-15.68-4a.56.56,0,0,0-.53.57h0a.54.54,0,0,0,.1.3l1.5,2a1.34,1.34,0,0,1,0,1.59L100,89.77a3.61,3.61,0,0,0-.6,1.36l-.1.52a3.53,3.53,0,0,1-.89,1.71l-3.15,3.37a1.47,1.47,0,0,0,.06,2.08h0a1.66,1.66,0,0,0,.3.22l.48.26a2.35,2.35,0,0,0,1.47.27l1.4-.21a.28.28,0,0,1,.33.22h0a.35.35,0,0,0,.35.35.36.36,0,0,0,.2-.06l2.39-1.56a2.91,2.91,0,0,1,1.64-.48,4,4,0,0,0,2.66-1,.82.82,0,0,1,1.16.08h0a.89.89,0,0,1,.18.38c.31,1.52-.15,4.16-5.15,7a6.51,6.51,0,0,0-3.21,6.82h0a4.32,4.32,0,0,0,4.29,3.5Z"/><path class="cls-7" d="M99.87,99.92l.85-.56-.13-.07-.48-.26a1.47,1.47,0,0,1-.58-2h0a1.29,1.29,0,0,1,.22-.3l3.12-3.29a3.53,3.53,0,0,0,.89-1.71l.1-.52a3.44,3.44,0,0,1,.62-1.36l1.11-1.53a1.34,1.34,0,0,0,0-1.59l-1.83-2.51a.54.54,0,0,1,0-.68c-1.58.09-2.91.27-3.75.29a.56.56,0,0,0-.53.57h0a.54.54,0,0,0,.1.3l1.5,2a1.34,1.34,0,0,1,0,1.59L100,89.82a3.61,3.61,0,0,0-.6,1.36l-.1.52a3.53,3.53,0,0,1-.89,1.71l-3.09,3.32a1.47,1.47,0,0,0,.06,2.08h0a1.66,1.66,0,0,0,.3.22l.48.26a2.35,2.35,0,0,0,1.47.27l1.4-.21a.28.28,0,0,1,.33.22h0a.35.35,0,0,0,.35.35.36.36,0,0,0,.2-.06Z"/><path class="cls-7" d="M104,111.26h0a6.51,6.51,0,0,1,3.21-6.82c3-1.71,5.2-3.76,5.21-6.38a1.74,1.74,0,0,0-2.72-1.42L108,97.8c.13,1.56-.66,4-5.21,6.61a6.51,6.51,0,0,0-3.21,6.82h0a4.32,4.32,0,0,0,4.29,3.5h4.47a4.32,4.32,0,0,1-4.29-3.5Z"/><path class="cls-6" d="M103.64,93.83a1.36,1.36,0,0,1-1.34-1.36,1.38,1.38,0,0,1,.68-1.16l1.5-.81a1.35,1.35,0,1,1,1.59,2.18l-.07,0-.19.11-1.53.86a1.28,1.28,0,0,1-.66.18Z"/></g></g><path d="M111.62,10.18a19.5,19.5,0,1,0,19.5,19.5A19.5,19.5,0,0,0,111.62,10.18Z"/><path d="M107.6,19.25h8V40.11h-8Z"/><path d="M101.19,25.66H122v8H101.19Z"/><path class="cls-9" d="M139.16,27.5A27.54,27.54,0,0,0,111.66,0l-5.78,25.85L111.66,55A27.54,27.54,0,0,0,139.16,27.5Z"/><path class="cls-10" d="M111.66,55V0a27.5,27.5,0,0,0,0,55Z"/><path class="cls-11" d="M107.64,16v7.48h-7.48v8h7.48V39h4l3.12-11.5L111.66,16Z"/><path class="cls-12" d="M115.68,31.52h7.48v-8h-7.48V16h-4V39h4Z"/><rect class="cls-13" y="11.5" width="18.16" height="102.5"/></g></g></svg>