<svg xmlns="http://www.w3.org/2000/svg" viewBox="0 0 131.15 142.82"><defs><style>.cls-1{fill:#dbedff;}.cls-2{fill:#b5dcff;}.cls-3{fill:#407093;}.cls-4{fill:#365e7d;}.cls-5{fill:#ffc250;}.cls-6{fill:#ebb044;}.cls-7{fill:#ffd064;}.cls-8{fill:#ffe07d;}.cls-9{fill:#307dd8;}.cls-10{fill:#4285f4;}.cls-11{fill:#e9f0ff;}.cls-12{fill:#d4e5fd;}</style></defs><g id="Layer_2" data-name="Layer 2"><g id="Layer_1-2" data-name="Layer 1"><g id="Layer_2-2" data-name="Layer 2"><g id="Layer_1-2-2" data-name="Layer 1-2"><path class="cls-1" d="M102.52,53.13V30.56a3.06,3.06,0,0,0-3.06-3.06H76.89l-3.37,1.6H53.74l-2.48-1.6H25.63L0,53.13V78.76l3.09,3.16v19.19L0,104.39V127A3.06,3.06,0,0,0,3.06,130H25.63L29,127.23H47.8L51.26,130H76.89l25.63-25.63V78.76L99.24,75V55.44Z"/><path class="cls-2" d="M16.14,130a9.62,9.62,0,0,1-.2-2V37.19L0,53.13V78.76l3.09,3.16v19.19L0,104.39V127A3.06,3.06,0,0,0,3.06,130Z"/><path class="cls-3" d="M0,78.76H25.63v25.63H0Z"/><path class="cls-4" d="M0,78.76H15.94v25.63H0Z"/><path class="cls-3" d="M51.26,78.76H76.89v25.63H51.26Z"/><path class="cls-3" d="M25.63,53.13H51.26V78.76H25.63Z"/><path class="cls-3" d="M76.89,53.13h25.63V78.76H76.89Z"/><path class="cls-3" d="M51.26,27.5H76.89V53.13H51.26Z"/><path class="cls-3" d="M76.89,130h23.38a2.25,2.25,0,0,0,2.25-2.25V104.39H76.89Z"/><path class="cls-3" d="M0,29.74V53.13H25.63V27.5H2.24A2.24,2.24,0,0,0,0,29.74Z"/><path class="cls-4" d="M15.94,29.5a9.62,9.62,0,0,1,.2-2H2.24A2.24,2.24,0,0,0,0,29.74V53.13H15.94Z"/><path class="cls-3" d="M25.63,104.39H51.26V130H25.63Z"/><path class="cls-5" d="M97.11,133.77a3.67,3.67,0,0,0-3.61-3l-.23-.24h-7.8l-.49.24a3.69,3.69,0,0,0-3.62,3,6,6,0,0,1-2.65,3.89l.6.4H99.19l.58-.4A6,6,0,0,1,97.11,133.77Z"/><path class="cls-6" d="M87.37,133.77c.2-1.74,1.24-3,2.43-3l.34-.24H85.47l-.49.24a3.69,3.69,0,0,0-3.62,3,6,6,0,0,1-2.65,3.89l.6.4H86l-.4-.4a6.65,6.65,0,0,0,1.79-3.89Z"/><path class="cls-7" d="M101.89,137.66H76.58a2,2,0,0,0-2,2v1.13a2,2,0,0,0,2,2h25.31a2,2,0,0,0,2-2v-1.13A2,2,0,0,0,101.89,137.66Z"/><path class="cls-7" d="M101.89,137.66H86.07a2,2,0,0,0-2,2v1.13a2,2,0,0,0,2,2h15.82a2,2,0,0,0,2-2v-1.13A2,2,0,0,0,101.89,137.66Z"/><path class="cls-5" d="M84.42,140.82v-1.14a2,2,0,0,1,2-2H76.58a2,2,0,0,0-2,2v1.14a2,2,0,0,0,2,2h9.85a2,2,0,0,1-2-2Z"/><path class="cls-8" d="M93.17,130.76a3.32,3.32,0,0,0,3.3-3.36v-.13a12.65,12.65,0,0,1,1-5.63c2-4.82,4.1-12.57-.2-17.86-4.78-5.88-12.91-4-15.68-4a.55.55,0,0,0-.53.57.54.54,0,0,0,.1.3l1.5,2a1.34,1.34,0,0,1,0,1.59l-1.12,1.53a3.61,3.61,0,0,0-.6,1.36l-.1.52a3.53,3.53,0,0,1-.89,1.71l-3.15,3.37a1.47,1.47,0,0,0,.06,2.08,1.66,1.66,0,0,0,.3.22l.48.26a2.35,2.35,0,0,0,1.47.27l1.4-.21a.28.28,0,0,1,.33.23v0a.35.35,0,0,0,.35.35.36.36,0,0,0,.2-.06l2.39-1.56a2.91,2.91,0,0,1,1.64-.48,4,4,0,0,0,2.66-1,.82.82,0,0,1,1.16.08.89.89,0,0,1,.18.38c.31,1.52-.15,4.16-5.15,7a6.51,6.51,0,0,0-3.21,6.82h0a4.32,4.32,0,0,0,4.29,3.5Z"/><path class="cls-7" d="M81.39,115.92l.85-.56-.13-.07-.48-.26a1.47,1.47,0,0,1-.58-2,1.29,1.29,0,0,1,.22-.3l3.12-3.29a3.53,3.53,0,0,0,.89-1.71l.1-.52a3.44,3.44,0,0,1,.62-1.36l1.11-1.53a1.34,1.34,0,0,0,0-1.59l-1.83-2.51a.54.54,0,0,1,0-.68c-1.58.09-2.91.27-3.75.29a.55.55,0,0,0-.53.57.54.54,0,0,0,.1.3l1.5,2a1.34,1.34,0,0,1,0,1.59l-1.12,1.53a3.61,3.61,0,0,0-.6,1.36l-.1.52a3.53,3.53,0,0,1-.89,1.71l-3.09,3.32a1.47,1.47,0,0,0,.06,2.08,1.66,1.66,0,0,0,.3.22l.48.26a2.35,2.35,0,0,0,1.47.27l1.4-.21a.28.28,0,0,1,.33.23v0a.35.35,0,0,0,.35.35.36.36,0,0,0,.2-.06Z"/><path class="cls-7" d="M85.54,127.26h0a6.51,6.51,0,0,1,3.21-6.82c3-1.71,5.2-3.76,5.21-6.38a1.74,1.74,0,0,0-2.72-1.42l-1.76,1.16c.13,1.56-.66,4-5.21,6.61a6.51,6.51,0,0,0-3.21,6.82h0a4.32,4.32,0,0,0,4.29,3.5h4.47a4.32,4.32,0,0,1-4.29-3.5Z"/><path class="cls-6" d="M85.16,109.83a1.36,1.36,0,0,1-1.34-1.36,1.38,1.38,0,0,1,.68-1.16l1.5-.81a1.35,1.35,0,1,1,1.52,2.23l-.19.11-1.53.86a1.28,1.28,0,0,1-.66.18Z"/></g></g><path d="M103.61,10.18a19.5,19.5,0,1,0,19.5,19.5A19.53,19.53,0,0,0,103.61,10.18Z"/><path d="M99.59,19.25h8V40.11h-8Z"/><path d="M93.18,25.66H114v8H93.18Z"/><path class="cls-9" d="M131.15,27.5A27.54,27.54,0,0,0,103.65,0L97.87,25.85,103.65,55A27.54,27.54,0,0,0,131.15,27.5Z"/><path class="cls-10" d="M103.65,55V0a27.5,27.5,0,0,0,0,55Z"/><path class="cls-11" d="M99.63,16v7.48H92.15v8h7.48V39h4l3.12-11.5L103.65,16Z"/><path class="cls-12" d="M107.67,31.52h7.48v-8h-7.48V16h-4V39h4Z"/></g></g></svg>