<svg xmlns="http://www.w3.org/2000/svg" viewBox="0 0 117.13 135.06"><defs><style>.cls-1{fill:#98bce5;}.cls-2{fill:#78b9eb;}.cls-3{fill:#0078c8;}.cls-4{fill:#2d69a5;}.cls-5{fill:#266087;}.cls-6{fill:#0268b4;}.cls-7{fill:#ffc250;}.cls-8{fill:#ebb044;}.cls-9{fill:#ffd064;}.cls-10{fill:#ffe07d;}</style></defs><g id="Layer_2" data-name="Layer 2"><g id="Layer_1-2" data-name="Layer 1"><path class="cls-1" d="M45.44,102.63h3.93V121H92.76a6,6,0,0,0,6-6v-11a1.46,1.46,0,0,0-1.46-1.46H94.8a6.38,6.38,0,0,1-6.42-6.11,6.3,6.3,0,0,1,6.29-6.47h2.6a1.46,1.46,0,0,0,1.46-1.46V73.12a1.46,1.46,0,0,0-1.46-1.46H81.8a1.46,1.46,0,0,0-1.46,1.46v5a6.29,6.29,0,0,1-12.58,0v-5a1.46,1.46,0,0,0-1.46-1.46H49.37V90.05H45.31A6.29,6.29,0,0,0,39,96.52,6.37,6.37,0,0,0,45.44,102.63Z"/><path class="cls-2" d="M72.65,31H69.22a1.47,1.47,0,0,0-1.46,1.46V47.9a1.47,1.47,0,0,0,1.46,1.47H86.16v6.44A6.3,6.3,0,0,0,92.6,62.1a6.38,6.38,0,0,0,6.14-6.42V49.36h16.93a1.46,1.46,0,0,0,1.46-1.46V32.43A1.47,1.47,0,0,0,115.67,31h-3.43a6.37,6.37,0,0,1-6.41-6.11,6.28,6.28,0,0,1,6.28-6.47h3.56a1.46,1.46,0,0,0,1.46-1.46V6a6,6,0,0,0-6-6H69.22a1.46,1.46,0,0,0-1.46,1.46V16.93a1.46,1.46,0,0,0,1.46,1.46h3.56a6.3,6.3,0,0,1,6.29,6.47A6.38,6.38,0,0,1,72.65,31Z"/><path class="cls-3" d="M9.38,121h40V102.63H45.44A6.37,6.37,0,0,1,39,96.52a6.28,6.28,0,0,1,6.28-6.47h4.07V71.66H31v-5a6.29,6.29,0,0,0-12.58,0v5h-15v43.39a6,6,0,0,0,6,6Z"/><path class="cls-4" d="M18.39,71.66v-5a6.29,6.29,0,0,1,12.58,0v5H49.36V53.26h4.89a6.37,6.37,0,0,0,6.42-6.11,6.29,6.29,0,0,0-6.29-6.46h-5V23.75a1.47,1.47,0,0,0-1.47-1.46H9.38a6,6,0,0,0-6,6v43.4Z"/><path class="cls-5" d="M5.84,71.66V28.26a6,6,0,0,1,6-6H6a6,6,0,0,0-6,6v43.4Z"/><path class="cls-6" d="M6,121h5.85a6,6,0,0,1-6-6V71.66H0v43.39A6,6,0,0,0,6,121Z"/><path class="cls-7" d="M91.53,126A3.66,3.66,0,0,0,88,123l-.23-.25h-7.8l-.49.25a3.66,3.66,0,0,0-3.61,3,6,6,0,0,1-2.66,3.9l.6.39H93.61l.58-.39A6,6,0,0,1,91.53,126Z"/><path class="cls-8" d="M81.79,126c.21-1.74,1.24-3,2.43-3l.34-.25H79.89l-.49.25a3.66,3.66,0,0,0-3.61,3,6,6,0,0,1-2.66,3.9l.6.39H80.4l-.4-.39A6.68,6.68,0,0,0,81.79,126Z"/><path class="cls-9" d="M96.32,129.91H71a2,2,0,0,0-2,2v1.14a2,2,0,0,0,2,2H96.32a2,2,0,0,0,2-2v-1.14A2,2,0,0,0,96.32,129.91Z"/><path class="cls-9" d="M96.32,129.91H80.5a2,2,0,0,0-2,2v1.14a2,2,0,0,0,2,2H96.32a2,2,0,0,0,2-2v-1.14A2,2,0,0,0,96.32,129.91Z"/><path class="cls-7" d="M78.84,133.06v-1.14a2,2,0,0,1,2-2H71a2,2,0,0,0-2,2v1.14a2,2,0,0,0,2,2h9.86A2,2,0,0,1,78.84,133.06Z"/><path class="cls-10" d="M87.59,123a3.34,3.34,0,0,0,3.3-3.37v-.13a12.91,12.91,0,0,1,1-5.62c2-4.83,4.1-12.58-.2-17.87-4.81-5.87-13-4-15.72-3.93a.53.53,0,0,0-.42.86l1.5,2a1.34,1.34,0,0,1,0,1.59L76,98.09a3.36,3.36,0,0,0-.6,1.37l-.11.51a3.4,3.4,0,0,1-.89,1.72L71.22,105a1.5,1.5,0,0,0,.08,2.11,1.31,1.31,0,0,0,.28.2l.48.26a2.28,2.28,0,0,0,1.47.26l1.44-.24a.27.27,0,0,1,.32.22v.06a.37.37,0,0,0,.37.36.32.32,0,0,0,.18-.06l2.39-1.57a3.08,3.08,0,0,1,1.64-.48,4,4,0,0,0,2.67-1,.82.82,0,0,1,1.33.46c.31,1.52-.15,4.17-5.15,7a6.54,6.54,0,0,0-3.21,6.82h0a4.35,4.35,0,0,0,4.29,3.5Z"/><path class="cls-9" d="M75.81,108.17l.86-.57-.14-.06-.48-.26a1.47,1.47,0,0,1-.54-2,1.57,1.57,0,0,1,.19-.26l3.12-3.28A3.5,3.5,0,0,0,79.7,100l.11-.51a3.5,3.5,0,0,1,.6-1.37l1.11-1.53a1.34,1.34,0,0,0,0-1.59L79.7,92.5a.56.56,0,0,1,0-.69c-1.58.09-2.91.28-3.75.3a.53.53,0,0,0-.42.86L77,95a1.34,1.34,0,0,1,0,1.59L76,98.09a3.36,3.36,0,0,0-.6,1.37l-.11.51a3.4,3.4,0,0,1-.89,1.72L71.22,105a1.5,1.5,0,0,0,.08,2.11,1.31,1.31,0,0,0,.28.2l.48.26a2.28,2.28,0,0,0,1.47.26l1.44-.24a.27.27,0,0,1,.32.22v.06a.37.37,0,0,0,.37.36.32.32,0,0,0,.18-.06Z"/><path class="cls-9" d="M80,119.51h0a6.55,6.55,0,0,1,3.21-6.82c3-1.71,5.2-3.76,5.21-6.38a1.73,1.73,0,0,0-2.72-1.41L83.9,106c.13,1.56-.65,4-5.21,6.61a6.54,6.54,0,0,0-3.21,6.82h0a4.35,4.35,0,0,0,4.29,3.5h4.47a4.35,4.35,0,0,1-4.29-3.5Z"/><path class="cls-8" d="M79.58,102.07A1.35,1.35,0,0,1,79,99.55l1.53-.86A1.34,1.34,0,0,1,81.77,101l-1.53.87a1.38,1.38,0,0,1-.66.17Z"/></g></g></svg>