<svg xmlns="http://www.w3.org/2000/svg" viewBox="0 0 1817.77 1008"><defs><style>.cls-1{opacity:0.5;}.cls-2{fill:#f6967c;}.cls-2,.cls-3,.cls-4,.cls-5,.cls-6,.cls-7,.cls-8,.cls-9{opacity:0.8;}.cls-3{fill:#f9cb7f;}.cls-4{fill:#a0d8f9;}.cls-5{fill:#a5d7f4;}.cls-6{fill:#6fcb7f;}.cls-7{fill:#9695d5;}.cls-8{fill:#eda18b;}.cls-9{fill:#9694d8;}</style></defs><g id="Layer_2" data-name="Layer 2"><g id="Layer_1-2" data-name="Layer 1"><g class="cls-1"><path class="cls-2" d="M0,677.08c4.66-1.83,7,2.42,9.83,5,17.57,15.85,42.36,13.6,58.26-5.34,14.45-17.21,15-47.93,1.26-65.92-14.93-19.49-40.22-23-58.14-7.87-4,3.36-7.49,7.47-11.21,11.23V580.12c20.84-11.65,42-15.73,64-3.81C91,591,104.72,619.62,101,654.1c-3.21,30-24.74,55.38-52,61.91-12.82,3.06-25,1.24-37.08-4-3.83-1.65-7.3-5.12-11.9-3.51Z"/><path class="cls-3" d="M1143.64,886.71c-7.64,11-11.14,24-16.05,36.17-10.51,26.12-21.22,52.14-31.81,78.22-1.08,2.64-.89,6.61-4.31,6.89s-4.25-3.49-5.1-6.15c-8.38-26.05-16.36-52.27-25-78.21-2.7-8.12.48-11.4,6.22-13.35,22.42-7.59,44.23-17.06,66-26.84C1137,881.87,1141.65,879.39,1143.64,886.71Z"/><path class="cls-4" d="M281.41,902.82a61,61,0,0,1,17.19-41.76c4.91-5,8.62-7,13.07,2,13.88,28.09,28.64,55.62,43.18,83.28,3.22,6.12,1.71,9.78-3.86,11.92C318.27,970.76,283.21,949.89,281.41,902.82Z"/><path class="cls-5" d="M356.31,437.8c-3.65.16-5.16-2.69-7-4.77-14.14-16-28.16-32.1-42.38-48-4.16-4.65-5.67-8.08-.68-13.91,14.13-16.5,28.08-33.19,43-48.79,4-4.13,6.71-4.79,10.56-.47,14.94,16.74,30,33.31,45,50.07,3,3.36,4.1,7.09.38,11.28-15.26,17.16-30.38,34.5-45.59,51.74A27.42,27.42,0,0,1,356.31,437.8Zm-1.91-98a56.81,56.81,0,0,0-4.75,4.38c-7.91,8.88-15.51,18.13-23.69,26.68-4.85,5.08-4.54,9.38-.33,14.2,8.1,9.28,16.38,18.37,24.32,27.82,3.68,4.37,6.48,4.92,10.39.26,8.47-10.08,17.32-19.76,26-29.65,1.58-1.8,4.23-4.25,2.45-6.56a332.43,332.43,0,0,0-32.44-36.83C356.07,339.86,355.58,340,354.4,339.79Z"/><path class="cls-6" d="M1429.21,755.8c23.6.6,43.07,22.67,42.62,47.9-.13,7.19-1.71,10.38-8.76,8.94-22.53-4.62-45.13-8.82-67.72-13-9.23-1.72-10.27-7.6-6.61-15.92C1397.08,764.8,1410.43,755.17,1429.21,755.8Z"/><path class="cls-7" d="M1754.43,487.8c-.92-4.54,1.29-6.07,4.75-7.1,13.32-4,26.58-8.22,39.88-12.28,4.65-1.42,6.84.72,8,6.16q4.54,21.56,10.07,42.84c1.52,5.89.54,8.86-4.94,10.38-13,3.62-25.94,7.57-38.83,11.67-3.81,1.2-6.62,1.75-7.86-3.76C1761.89,519.71,1758.12,503.75,1754.43,487.8Zm26.22,38c7-5.37,20.85.26,24.89-12.55,3-9.65-7.67-33.15-11.59-31.5-9.38,3.93-23.14.65-27.21,13.08C1763.47,504.84,1774.32,525.89,1780.65,525.81Z"/><path class="cls-6" d="M891.36,350.77c5.2-17.6,10-33.61,14.65-49.66,2-6.95,6-6.46,10.93-4.34,13.58,5.83,27.25,11.4,41.17,17.2C951.39,320.64,905,346.32,891.36,350.77Z"/><path class="cls-8" d="M1547.74,221.61c.22,15.86-13.11,30.93-27.28,30.82-14-.1-26.54-14-27-29.75-.49-17.42,11.74-31.62,27.23-31.61C1535.72,191.08,1547.5,204.39,1547.74,221.61Zm-27.4-19.9c-8.64.14-16.21,9.28-16.27,19.64-.06,11.75,7,19.71,17.14,19.35,8.91-.31,17.08-9.43,17.06-19C1538.26,211.81,1529.05,201.57,1520.34,201.71Z"/><path class="cls-9" d="M632.58,144.11c-15.15,20.56-15.16,20.56-31.56,2-17.36-19.7-34.42-39.75-52.22-58.92-6.47-7-5.72-10.71.2-17.46,20.27-23.12,41.65-45,60.49-69.69h13.85c19.25,25.14,41.23,47.23,61.47,71.28,3.23,3.83,9,7.68.85,12.59q-14.56,1.75-16.18,18.28l0,0c-16.42,4.68-23,22.7-34.88,33.44C632.28,137.68,632.57,141.07,632.58,144.11Z"/><path class="cls-9" d="M632.58,144.11c0-3-.3-6.43,2-8.48,11.93-10.74,18.46-28.76,34.88-33.44C658.76,118,646.21,131.65,632.58,144.11Z"/><path class="cls-9" d="M669.48,102.15q1.63-16.5,16.18-18.28C681.86,91.79,676.76,98.22,669.48,102.15Z"/></g></g></g></svg>