<svg xmlns="http://www.w3.org/2000/svg" viewBox="0 0 1920 1094.7"><defs><style>.cls-1{opacity:0.25;}.cls-2{fill:#ffe78d;}.cls-3{fill:#3fbecd;}.cls-11,.cls-4,.cls-5,.cls-6,.cls-7{fill:none;stroke-miterlimit:10;}.cls-4{stroke:#3fbecd;}.cls-4,.cls-6{stroke-width:12px;}.cls-5{stroke:#403951;stroke-width:45px;}.cls-6,.cls-7{stroke:#dd5ba3;}.cls-7{stroke-width:15px;}.cls-8{fill:#9e50c8;}.cls-9{fill:#403951;}.cls-10{fill:#eee580;}.cls-11{stroke:#ffe7a4;stroke-width:20px;}.cls-12{fill:#ac3eb9;}</style></defs><g id="Layer_2" data-name="Layer 2"><g id="Layer_1-2" data-name="Layer 1"><g class="cls-1"><circle class="cls-2" cx="1179.88" cy="895.8" r="12.5"/><circle class="cls-2" cx="1260.62" cy="895.8" r="12.5"/><circle class="cls-2" cx="1341.36" cy="895.8" r="12.5"/><ellipse class="cls-2" cx="1341.36" cy="956.23" rx="12.5" ry="11.57"/><circle class="cls-2" cx="1260.62" cy="956.23" r="12.5"/><circle class="cls-2" cx="1179.88" cy="956.23" r="12.5"/><circle class="cls-2" cx="1179.88" cy="1021.8" r="12.5"/><circle class="cls-2" cx="1260.62" cy="1021.8" r="12.5"/><circle class="cls-2" cx="1341.36" cy="1021.8" r="12.5"/><path class="cls-3" d="M1878.13,830.23c0,54.67-51.54,99-115.13,99s-115.13-44.33-115.13-99"/><path class="cls-4" d="M402.37,434.23c0,49.7-46.86,90-104.66,90s-104.66-40.3-104.66-90"/><path class="cls-5" d="M1773.47,398.23c-234.11,0-423.89-163.19-423.89-364.5q0-15.91,1.56-31.5"/><path class="cls-6" d="M653.66,317.23c-57.8,0-104.66-36.27-104.66-81s46.86-81,104.66-81"/><path class="cls-7" d="M0,785.23c83.5,0,151.18,52.38,151.18,117"/><ellipse class="cls-8" cx="805.33" cy="899.71" rx="5.23" ry="4.5"/><ellipse class="cls-8" cx="836.35" cy="899.71" rx="5.23" ry="4.5"/><ellipse class="cls-8" cx="867.37" cy="899.71" rx="5.23" ry="4.5"/><ellipse class="cls-8" cx="929.4" cy="899.71" rx="5.23" ry="4.5"/><ellipse class="cls-8" cx="805.33" cy="926.21" rx="5.23" ry="4.5"/><ellipse class="cls-8" cx="836.35" cy="926.21" rx="5.23" ry="4.5"/><ellipse class="cls-8" cx="867.37" cy="926.21" rx="5.23" ry="4.5"/><ellipse class="cls-8" cx="929.4" cy="926.21" rx="5.23" ry="4.5"/><ellipse class="cls-8" cx="805.33" cy="952.72" rx="5.23" ry="4.5"/><ellipse class="cls-8" cx="836.35" cy="952.72" rx="5.23" ry="4.5"/><ellipse class="cls-8" cx="867.37" cy="952.72" rx="5.23" ry="4.5"/><ellipse class="cls-8" cx="929.4" cy="956.23" rx="5.23" ry="4.5"/><ellipse class="cls-8" cx="805.33" cy="979.22" rx="5.23" ry="4.5"/><ellipse class="cls-8" cx="836.6" cy="979.22" rx="5.23" ry="4.5"/><ellipse class="cls-8" cx="867.88" cy="979.22" rx="5.23" ry="4.5"/><ellipse class="cls-8" cx="929.4" cy="979.22" rx="4.89" ry="4.21"/><ellipse class="cls-8" cx="805.33" cy="1005.73" rx="5.23" ry="4.5"/><ellipse class="cls-8" cx="836.35" cy="1005.73" rx="5.23" ry="4.5"/><ellipse class="cls-8" cx="867.37" cy="1005.73" rx="5.23" ry="4.5"/><ellipse class="cls-8" cx="929.4" cy="1005.73" rx="5.23" ry="4.5"/><ellipse class="cls-8" cx="898.39" cy="899.71" rx="5.23" ry="4.5"/><ellipse class="cls-8" cx="898.39" cy="926.21" rx="5.23" ry="4.5"/><ellipse class="cls-8" cx="898.39" cy="952.72" rx="5.23" ry="4.5"/><ellipse class="cls-8" cx="898.81" cy="979.22" rx="4.89" ry="4.21"/><ellipse class="cls-8" cx="898.39" cy="1005.73" rx="5.23" ry="4.5"/><circle class="cls-9" cx="180.94" cy="233.23" r="30"/><ellipse class="cls-9" cx="180.94" cy="449.23" rx="30" ry="27"/><circle class="cls-9" cx="180.94" cy="674.23" r="30"/><circle class="cls-9" cx="474" cy="674.23" r="30"/><circle class="cls-9" cx="474" cy="449.23" r="30"/><circle class="cls-9" cx="474" cy="233.23" r="30"/><path class="cls-9" d="M246.45,961.47c-6.34-5.27-16.73-5.27-23.08,0L89.46,1072.65c-6.35,5.27-4.79,9.58,3.46,9.58h284c8.25,0,9.8-4.31,3.46-9.58Z"/><rect class="cls-2" x="1752.54" y="551.23" width="167.46" height="18"/><circle class="cls-10" cx="1566" cy="155.23" r="9.5"/><circle class="cls-10" cx="1566" cy="220.8" r="9.5"/><path class="cls-11" d="M193.05,1087.48c28-45.91,86.12-72.91,145.43-76.91,68.61-4,137.22,27,170,78.77"/><ellipse class="cls-12" cx="1377.49" cy="390.73" rx="8.72" ry="7.5"/><ellipse class="cls-12" cx="1424.59" cy="390.73" rx="8.72" ry="7.5"/><ellipse class="cls-12" cx="1471.69" cy="390.73" rx="8.72" ry="7.5"/><ellipse class="cls-12" cx="1518.79" cy="390.73" rx="8.72" ry="7.5"/><ellipse class="cls-12" cx="1565.89" cy="390.73" rx="8.72" ry="7.5"/></g></g></g></svg>