<svg id="Layer_1" data-name="Layer 1" xmlns="http://www.w3.org/2000/svg" xmlns:xlink="http://www.w3.org/1999/xlink" viewBox="0 0 293.36 458.53"><defs><style>.cls-1{fill:none;}.cls-2{fill:#fff;}.cls-3{clip-path:url(#clip-path);}.cls-4{clip-path:url(#clip-path-2);}</style><clipPath id="clip-path" transform="translate(-173.8 -66.71)"><circle class="cls-1" cx="345.89" cy="369.9" r="43.95"/></clipPath><clipPath id="clip-path-2" transform="translate(-173.8 -66.71)"><circle class="cls-1" cx="377.37" cy="241.24" r="51.93"/></clipPath></defs><path class="cls-2" d="M225.56,525.24c0-37.47,52.74-67.85,117.81-67.85s117.82,30.38,117.82,67.85" transform="translate(-173.8 -66.71)"/><g class="cls-3"><path class="cls-2" d="M349.54,366.94q-5.55,0-11.13-.49A123,123,0,0,1,300.51,131l16.13,37.23A82.43,82.43,0,0,0,342,326a81.61,81.61,0,0,0,33.88-4L389,360.39A121.71,121.71,0,0,1,349.54,366.94Z" transform="translate(-173.8 -66.71)"/></g><path class="cls-2" d="M344.21,366.62c-2.21-.08-4.44-.21-6.63-.41a116.85,116.85,0,0,1-36-223.64l16.13,37.24a76.28,76.28,0,0,0,23.48,146c1.46.13,2.92.22,4.38.26Z" transform="translate(-173.8 -66.71)"/><path class="cls-2" d="M442.13,175.85c-31.35-11.57-62.48-23.69-93.75-35.46-3.36-1.27-5.06-2.92-5.44-6.63-.89-8.84-2.25-17.66-3.41-26.48-1.11.63-2.24,1.25-3.35,1.87-4.71,3.54-9.55,6.92-14.09,10.66-18,14.77-37,28.53-53.67,44.74a131.79,131.79,0,0,0-22.53,28.52,23.41,23.41,0,0,1,13.88-4.17c13.78,0,21.53,9.36,23.24,19.89a75,75,0,0,1,132.56,15l27.4,2.65c3.59-2.41,6-6,7.38-10.79a94.65,94.65,0,0,0,3.73-23.7C454.3,184.16,450.11,178.8,442.13,175.85Z" transform="translate(-173.8 -66.71)"/><g class="cls-4"><path class="cls-2" d="M339.36,498.24a126.86,126.86,0,0,1-89.77-36.87,128.2,128.2,0,0,1-37.92-94.86l40.55,1.25a87.21,87.21,0,0,0,87.15,89.91h.55a87.21,87.21,0,1,0-10.21-173.88l-4.47-40.32a127.78,127.78,0,1,1,14.93,254.77Z" transform="translate(-173.8 -66.71)"/></g><path class="cls-2" d="M339.36,498.24a128,128,0,0,1-110.5-63.6l35.07-20.39A87.83,87.83,0,0,0,278.1,432.5a86.63,86.63,0,0,0,61.27,25.17h.55a87.23,87.23,0,0,0,28.95-169.3l13.69-38.2a126.81,126.81,0,0,1,46.62,29.39c50.13,49.51,50.62,130.58,1.11,180.7a127,127,0,0,1-90.12,38Z" transform="translate(-173.8 -66.71)"/><path class="cls-2" d="M323.81,83.31l2-1.64,18.66-15a171.57,171.57,0,0,0-23.07,2.48l-1.58.29c-2.42.45-4.92,1-7.59,1.61l-2.09.49a177.89,177.89,0,0,0-50.73,21.36c-36.93,22.75-64.49,59.18-77.62,102.6-13.25,43.81-10,88.86,9.21,126.85l30.18-15.24c-30-59.47-8.14-139.36,47.53-179.73l55-44.11Z" transform="translate(-173.8 -66.71)"/></svg>