<svg xmlns="http://www.w3.org/2000/svg" viewBox="0 0 254.8 424.14"><defs><style>.cls-1{fill:#fff;}</style></defs><g id="Layer_2" data-name="Layer 2"><g id="Layer_1-2" data-name="Layer 1"><path class="cls-1" d="M150.81,0,79.64,54.41l-3.31,2.53a118.79,118.79,0,0,0-45.11,93.29,120.22,120.22,0,0,0,1.27,17.49q.4,2.75.94,5.44L10.07,204.42A149.58,149.58,0,0,1,1.61,172.3,150.36,150.36,0,0,1,150.22,0Z"/><rect class="cls-1" x="77.43" y="349.67" width="145.6" height="29.26"/><rect class="cls-1" x="61.29" y="394.31" width="178.65" height="29.83"/><path class="cls-1" d="M241.19,89.92l-6.13,13.14-10.89,23.36-19-1.55-.44-.93c-.2-.42-.41-.83-.62-1.25,0,0,0,0,0,0A60.51,60.51,0,0,0,90.39,159.11h0a60.35,60.35,0,0,0,17.16,34l0,0a60.32,60.32,0,0,0,42.64,17.6c1.71,0,3.42-.07,5.09-.22s3.5-.36,5.21-.66h0a59.74,59.74,0,0,0,15.21-4.76l-31.61,42.32h0A97,97,0,0,1,86.33,224.3q-2.89-2.46-5.58-5.13A97.53,97.53,0,0,1,86.2,75.83l8.5-6.5,49.67-38,4.47-3.42.23,3.29,1.49,21.24.39,5.45,68.83,24.41Z"/><path class="cls-1" d="M254.8,244.89a104.53,104.53,0,0,1-51.13,89.89H96.78a104.9,104.9,0,0,1-42.36-47.92l10-13.35,18.69-25a.51.51,0,0,0,.13.09h0a67.11,67.11,0,0,0,134,0c.08-1.22.11-2.45.11-3.69a66.75,66.75,0,0,0-3.37-21c0-.16-.1-.32-.15-.48A67.18,67.18,0,0,0,124.16,183L142,159.11l13.92-18.63A104.46,104.46,0,0,1,254.8,244.89Z"/></g></g></svg>