<svg xmlns="http://www.w3.org/2000/svg" viewBox="0 0 1920 951.85"><defs><style>.cls-1{opacity:0.75;}.cls-2{fill:#fff;}.cls-3{fill:#679eef;}.cls-4{fill:#2a324b;}.cls-5{fill:#c3a554;}.cls-6{fill:#e8be60;}</style></defs><g id="Layer_2" data-name="Layer 2"><g id="Layer_1-2" data-name="Layer 1"><g class="cls-1"><rect class="cls-2" x="81.75" y="560.95" width="81.75" height="79.91"/><rect class="cls-3" x="164.2" y="320.64" width="81.75" height="79.91"/><rect class="cls-2" x="79.63" y="240.31" width="81.75" height="79.91"/><rect class="cls-4" y="160.67" width="81.75" height="79.91"/><rect class="cls-5" x="257" y="160.67" width="81.75" height="79.91"/><rect class="cls-2" x="165.07" y="395.26" width="80" height="80"/><rect class="cls-4" x="492.6" y="160.67" width="81.75" height="79.91"/><rect class="cls-4" x="410.14" y="80.34" width="81.75" height="79.91"/><rect class="cls-2" x="574.34" width="81.75" height="79.91"/><rect class="cls-5" x="82.45" y="720.92" width="81.75" height="79.91"/><rect class="cls-3" x="164.2" y="801.26" width="81.75" height="79.91"/><rect class="cls-3" y="560.95" width="81.75" height="79.91"/></g><g class="cls-1"><rect class="cls-3" x="1168.47" y="641.97" width="75.89" height="74.19"/><rect class="cls-2" x="1843.45" y="803.07" width="75.89" height="74.19"/><rect class="cls-4" x="1843.45" y="729.14" width="75.89" height="74.19"/><rect class="cls-3" x="1766.9" y="654.55" width="75.89" height="74.19"/><rect class="cls-2" x="1844.11" y="430.79" width="75.89" height="74.19"/><rect class="cls-6" x="1691.66" y="432.1" width="75.89" height="74.19"/><rect class="cls-2" x="1691.66" y="505.38" width="75.89" height="74.19"/><rect class="cls-3" x="1614.46" y="579.97" width="75.89" height="74.19"/><rect class="cls-6" x="1615.77" y="281.62" width="75.89" height="74.19"/><rect class="cls-4" x="1843.45" y="207.69" width="75.89" height="74.19"/><rect class="cls-2" x="1843.45" y="133.76" width="75.89" height="74.19"/><rect class="cls-2" x="1768.21" y="133.76" width="75.89" height="74.19"/><rect class="cls-4" x="940.79" y="717.21" width="75.89" height="74.19"/><rect class="cls-6" x="1093.23" y="715.9" width="75.89" height="74.19"/><rect class="cls-4" x="1093.23" y="641.97" width="75.89" height="74.19"/><rect class="cls-2" x="1691.01" y="729.14" width="75.89" height="74.19"/><rect class="cls-2" x="1233.68" y="877.66" width="75.89" height="74.19"/><rect class="cls-6" x="1541.18" y="726.52" width="75.89" height="74.19"/></g></g></g></svg>