<svg xmlns="http://www.w3.org/2000/svg" viewBox="0 0 1919.18 845.5"><defs><style>.cls-1{fill:#fdd663;}.cls-2{fill:#fdfdfd;}.cls-3{fill:#060606;}.cls-4{fill:#4285f4;}.cls-5{fill:#fff;}</style></defs><g id="Layer_2" data-name="Layer 2"><g id="Layer_1-2" data-name="Layer 1"><rect class="cls-1" x="1843.21" y="303.87" width="75.97" height="75.97"/><rect class="cls-2" x="1767.24" y="227.9" width="75.97" height="75.97"/><rect class="cls-3" x="1584.92" y="303.87" width="75.97" height="75.97"/><rect class="cls-4" x="1501.95" y="380.53" width="82.97" height="75.97"/><rect class="cls-4" x="1409.5" y="151.94" width="75.97" height="75.97"/><rect class="cls-2" x="1615.3" y="151.94" width="75.97" height="75.97"/><rect class="cls-1" x="1691.27" y="75.97" width="75.97" height="75.97"/><rect class="cls-4" x="1691.27" width="75.97" height="75.97"/><rect class="cls-4" x="1843.21" width="75.97" height="75.97"/><path class="cls-4" d="M2.72,231.42l-.3,73.16c-.06,1.58-.37,3-1.93,3.87V229.5l2.13.07A3.16,3.16,0,0,0,2.72,231.42Z"/><path class="cls-4" d="M2.72,231.42a3.16,3.16,0,0,1-.1-1.85,3.25,3.25,0,0,1,1.71.31C3.79,230.39,3.25,230.9,2.72,231.42Z"/><rect class="cls-1" x="152.24" y="466.29" width="76.12" height="76.12"/><rect x="76.12" y="390.18" width="76.12" height="76.12"/><rect class="cls-4" x="76.12" y="229.64" width="76.12" height="76.12"/><rect class="cls-4" y="229.64" width="76.12" height="76.12"/><rect class="cls-4" y="541.03" width="76.12" height="76.12"/><rect class="cls-5" x="76.12" y="617.15" width="76.12" height="76.12"/><rect class="cls-4" x="328" y="466.29" width="76.12" height="76.12"/><rect class="cls-4" x="253.27" y="617.15" width="76.12" height="76.12"/><rect class="cls-5" x="253.27" y="693.26" width="76.12" height="76.12"/><rect class="cls-1" x="329.38" y="769.38" width="76.12" height="76.12"/><rect class="cls-4" x="405.5" y="693.26" width="76.12" height="76.12"/></g></g></svg>