<svg xmlns="http://www.w3.org/2000/svg" viewBox="0 0 1921.5 665.5"><defs><style>.cls-1{opacity:0.5;}.cls-2{fill:#4285f4;}.cls-3{fill:#fff;}.cls-4{fill:#fdd663;}.cls-5{fill:#fdfdfd;}.cls-6{fill:#060606;}</style></defs><g id="Layer_2" data-name="Layer 2"><g id="Layer_1-2" data-name="Layer 1"><g class="cls-1"><path class="cls-2" d="M2,221.79l-.21,52.86a2.94,2.94,0,0,1-1.39,2.8v-57l1.53,0A2.27,2.27,0,0,0,2,221.79Z"/><path class="cls-2" d="M2,221.79a2.27,2.27,0,0,1-.07-1.34,2.42,2.42,0,0,1,1.24.22Z"/><rect class="cls-2" x="282" y="165.5" width="55" height="55"/><rect class="cls-2" x="282" y="110.5" width="55" height="55"/><rect class="cls-3" x="227" y="165.5" width="55" height="55"/><rect class="cls-2" x="172" y="220.5" width="55" height="55"/><rect x="227" y="275.5" width="55" height="55"/><rect class="cls-4" x="110" y="391.5" width="55" height="55"/><rect x="55" y="336.5" width="55" height="55"/><rect class="cls-2" x="55" y="220.5" width="55" height="55"/><rect class="cls-2" y="220.5" width="55" height="55"/><rect class="cls-3" x="110" y="55.5" width="55" height="55"/><rect class="cls-2" x="55" width="55" height="55"/><rect class="cls-4" width="55" height="55"/><rect class="cls-2" y="445.5" width="55" height="55"/><rect class="cls-3" x="55" y="500.5" width="55" height="55"/><rect class="cls-2" x="237" y="391.5" width="55" height="55"/><rect class="cls-2" x="183" y="500.5" width="55" height="55"/><rect class="cls-3" x="183" y="555.5" width="55" height="55"/><rect class="cls-4" x="238" y="610.5" width="55" height="55"/><rect class="cls-2" x="293" y="555.5" width="55" height="55"/></g><g class="cls-1"><rect class="cls-4" x="1866.5" y="552.5" width="55" height="55"/><rect class="cls-5" x="1811.5" y="497.5" width="55" height="55"/><rect class="cls-6" x="1679.5" y="552.5" width="55" height="55"/><rect class="cls-2" x="1624.5" y="608" width="55" height="55"/><rect class="cls-2" x="1552.5" y="442.5" width="55" height="55"/><rect class="cls-5" x="1701.5" y="442.5" width="55" height="55"/><rect class="cls-4" x="1756.5" y="387.5" width="55" height="55"/><rect class="cls-2" x="1756.5" y="332.5" width="55" height="55"/><rect class="cls-2" x="1866.5" y="332.5" width="55" height="55"/><rect class="cls-6" x="1701.5" y="222.5" width="55" height="55"/><rect class="cls-5" x="1701.5" y="167.5" width="55" height="55"/><rect class="cls-2" x="1646.5" y="112.5" width="55" height="55"/><rect class="cls-4" x="1866.5" y="57.5" width="55" height="55"/><rect class="cls-5" x="1866.5" y="2.5" width="55" height="55"/><rect class="cls-2" x="1811.5" y="2.5" width="55" height="55"/></g></g></g></svg>