<svg xmlns="http://www.w3.org/2000/svg" viewBox="0 0 1609 814.19"><defs><style>.cls-1{opacity:0.85;}.cls-2{fill:#fed21d;}.cls-2,.cls-3,.cls-4,.cls-5{opacity:0.35;}.cls-3{fill:#4eddc2;}.cls-4{fill:#f85d3f;}.cls-5{fill:#597efe;}</style></defs><g id="Layer_2" data-name="Layer 2"><g id="Layer_1-2" data-name="Layer 1"><g class="cls-1"><path class="cls-2" d="M1579.1,194c-.08,13.12-4.53,19.65-13.45,22-15.93,4.2-31.83,8.73-47.92,12.05-11.3,2.34-16.16-5.27-10.4-16.73,11.86-23.6,24.47-46.74,37.17-69.8,4.91-8.93,12.75-11.58,17.09-.84C1568.89,158.75,1573.93,177.91,1579.1,194ZM1554,139.48l-43.48,82.1c19.61-4.78,35-8.56,50.32-12.26,9.09-2.19,12.71-8.13,9.67-18C1565.76,175.72,1560.67,160.29,1554,139.48Z"/><path class="cls-3" d="M1609,785.13c-3.37,11.51-11.26,20.69-21.11,27.17-7.78,5.11-13.93-1.15-19.59-7-10.55-10.85-21.61-21.1-31.82-32.32-9.85-10.83-8.35-18.29,4.27-33.77,8.43-10.34,17-15.37,27.88-4.42s22,22.17,33.06,33.28C1605.85,772.32,1608.88,777.21,1609,785.13Zm-51.8-47.65c-9.2,2.52-13.16,10.57-17.51,17.67-3.6,5.89.36,10.28,4.19,14.12,9.93,10,20.2,19.56,29.71,30,8.16,9,13.66,5,19.48-2.88,5.39-7.3,12.59-13.66,2.35-23.2-10.64-9.9-20.65-20.62-31.07-30.81C1562.21,740.3,1559.45,739,1557.2,737.48Z"/><path class="cls-3" d="M706.32,773c-2.54.19-5.61.29-6-3.08-.68-5.7,4-5.33,7.08-6.13q44.28-11.4,88.61-22.61,34.86-8.88,69.73-17.71c3.25-.82,7.69-3,8.81,2.21,1.06,5-3.6,5.84-6.88,6.67q-79.18,20.1-158.41,40C708.29,772.67,707.3,772.82,706.32,773Z"/><path class="cls-2" d="M56.1,300c0,17.95-12.3,31.49-28.27,31.09C12.93,330.7.31,316.83,0,300.48c-.32-16.88,12.75-31.9,28-32.23S56.1,282.33,56.1,300Zm-28-22.77c-11.41.16-21.06,11-20.71,23.33.33,11.6,9.76,21.81,20.37,22.06C39.17,322.86,48.87,312.55,49,300S39.7,277.05,28.08,277.21Z"/><path class="cls-4" d="M12.73,536.78c4.61-.49,6.18,2.42,8.18,4.49q35.52,36.84,70.84,73.82c2.23,2.34,6.93,5.24,3.2,8.61-5,4.54-7.49-1.19-9.89-3.68Q50,583.78,15.39,547.16C12.85,544.48,6.9,541.85,12.73,536.78Z"/><path class="cls-5" d="M1251.62,199.18c8-.33,23.68,16.5,24.24,26.1.54,9.34-13.74,26.72-22.66,27.55-9.1.85-24.94-16.05-25-26.64C1228.21,216.88,1243.23,199.52,1251.62,199.18Zm0,45.27c7.64-3.7,15.31-9,15.61-17.86s-7.37-17.3-14.68-17.85c-7.75-.58-15,8.19-15.68,16.7C1236.09,234.78,1244.48,239.63,1251.6,244.45Z"/><path class="cls-4" d="M311.88,0c11,4.32,11,18.7,14.59,29.77,2.37,7.41-14.78,21.68-26.31,20.39-15-1.7-13.09-18.5-17-29.29C280.53,13.73,297.81.66,311.88,0Zm7.88,27.38c-6.07-4.19-1.89-18.29-12.39-16.89-5.95.79-16.89,1.28-16.05,11.9.51,6.42,1.19,18.62,10.9,17.87C308.31,39.79,317,38.31,319.76,27.38Z"/><path class="cls-3" d="M559.83,79.51c-3.93,7.07-3.9,19.23-13.1,18s-21.13-4.77-22.74-17c-.94-7.07,3-20.4,12.52-18.57C545.12,63.64,555.6,67.74,559.83,79.51Zm-9.48,2c-1.09-6.41-6.81-6.83-10.91-9.12-3.43-1.91-6.24.76-6.35,4.31-.25,8,6.39,8.88,11.14,10.82C547.72,89,549.2,85.24,550.35,81.56Z"/><path class="cls-5" d="M341.14,764.93c9.94.94,15.84,7.12,15.82,18,0,10.25-6.08,16.68-15.15,16.8-9.85.14-15.77-6.29-15.59-17.69C326.39,771.57,331.89,766.12,341.14,764.93Zm.53,26.25c4.71-.58,7.7-3.45,7.7-8.35,0-5.74-3.28-9-8.52-8.73-4.55.2-7.47,3.32-7.48,8.24C333.35,788.1,336.65,791,341.67,791.18Z"/></g></g></g></svg>