<svg xmlns="http://www.w3.org/2000/svg" viewBox="0 0 54 54"><defs><style>.cls-1{fill:#e1e6f0;}.cls-2{fill:#cfd7e6;}.cls-3{fill:#f3f5f9;}.cls-4{fill:#bf0027;}.cls-5{fill:#fd3018;}.cls-6{fill:#515866;}.cls-7{fill:#353d4d;}.cls-8{fill:#ffdf40;}.cls-9{fill:#ffbe40;}.cls-10{fill:#ff9f40;}.cls-11{fill:#1e2533;}</style></defs><g id="Layer_2" data-name="Layer 2"><g id="Layer_1-2" data-name="Layer 1"><path class="cls-1" d="M10.34,3.63A12.47,12.47,0,0,0,1.58,0H0V1.58a12.47,12.47,0,0,0,3.63,8.76L33.41,40.12l3.35-3.36,3.36-3.35Z"/><path class="cls-2" d="M10.34,3.63A12.47,12.47,0,0,0,1.58,0H0L36.76,36.76l3.36-3.35Z"/><path class="cls-3" d="M52.42,0a12.45,12.45,0,0,0-8.76,3.63L13.88,33.41l3.35,3.35,3.36,3.36L50.37,10.34A12.47,12.47,0,0,0,54,1.58V0Z"/><path class="cls-1" d="M50.37,10.34A12.47,12.47,0,0,0,54,1.58V0L17.23,36.76l3.36,3.36Z"/><path class="cls-4" d="M31.44,6.9,37.76.57,40,2.81,33.67,9.14Z"/><path class="cls-5" d="M14,2.81,16.22.57,22.55,6.9,20.31,9.14Z"/><path class="cls-5" d="M27,0H25.42V9.6h3.16V0Z"/><path class="cls-4" d="M27,0h1.58V9.6H27Z"/><path class="cls-6" d="M13.36,40.64,10,37.28,1.39,45.9A4.74,4.74,0,0,0,8.1,52.61L16.71,44Z"/><path class="cls-7" d="M8.1,52.61,16.71,44l-3.35-3.35-12,12A4.75,4.75,0,0,0,8.1,52.61Z"/><path class="cls-8" d="M23.1,42l-5.54-5.53L12,30.9,8.2,30a5.18,5.18,0,0,1,1.36,4.88,7.91,7.91,0,0,0,9.58,9.59A5.19,5.19,0,0,1,24,45.79Z"/><path class="cls-9" d="M19.14,44.44A5.19,5.19,0,0,1,24,45.79L23.1,42l-5.54-5.53-5.92,5.92a8,8,0,0,0,7.5,2.08Z"/><path class="cls-9" d="M18.35,35.65l-7.91-7.91L8.2,30l7.92,7.91L24,45.79l2.23-2.23Z"/><path class="cls-10" d="M16.11,37.88l2.24-2.24,7.91,7.91L24,45.79Z"/><path class="cls-7" d="M52.61,45.9,44,37.28l-3.36,3.36L37.29,44l8.61,8.62a4.74,4.74,0,0,0,6.71-6.71Z"/><path class="cls-11" d="M52.61,45.9,44,37.28l-3.36,3.36,12,12a4.75,4.75,0,0,0,0-6.71Z"/><path class="cls-8" d="M45.79,30,42,30.9l-5.53,5.54L30.9,42,30,45.79a5.17,5.17,0,0,1,4.88-1.35,7.91,7.91,0,0,0,9.59-9.59A5.2,5.2,0,0,1,45.79,30Z"/><path class="cls-9" d="M44.44,34.85A5.2,5.2,0,0,1,45.79,30L42,30.9l-5.53,5.54,5.92,5.92a8,8,0,0,0,2.08-7.51Z"/><path class="cls-9" d="M43.56,27.74l-7.91,7.91-7.91,7.91L30,45.79l7.91-7.91L45.79,30Z"/><path class="cls-10" d="M35.64,35.65l7.91-7.91L45.78,30l-7.9,7.91Z"/></g></g></svg>