<svg xmlns="http://www.w3.org/2000/svg" viewBox="0 0 60 60.01"><defs><style>.cls-1{fill:#ff4949;}.cls-2{fill:#ff193d;}</style></defs><g id="Layer_2" data-name="Layer 2"><g id="Layer_1-2" data-name="Layer 1"><path class="cls-1" d="M51.14,8.84a30,30,0,1,0,0,42.29A29.69,29.69,0,0,0,51.14,8.84Zm-37.33,5A23.09,23.09,0,0,1,30,7a23,23,0,0,1,13.26,4.37L30,24.6,11.35,43.25A22.5,22.5,0,0,1,13.81,13.8ZM46.18,46.17A23.1,23.1,0,0,1,30,53a23,23,0,0,1-13.27-4.38L48.64,16.72A22.49,22.49,0,0,1,46.18,46.17Z"/><path class="cls-2" d="M51.15,51.13A29.92,29.92,0,0,1,30,60V53a23.1,23.1,0,0,0,16.19-6.84,22.5,22.5,0,0,0,2.46-29.45L30,35.37V24.6L43.27,11.34A23,23,0,0,0,30,7V0A30,30,0,0,1,51.15,8.84,29.69,29.69,0,0,1,51.15,51.13Z"/></g></g></svg>