<svg xmlns="http://www.w3.org/2000/svg" viewBox="0 0 103.91 115.33"><defs><style>.cls-1{fill:#dbedff;}.cls-2{fill:#b5dcff;}.cls-3{fill:#407093;}.cls-4{fill:#365e7d;}.cls-5{fill:#ffc250;}.cls-6{fill:#ebb044;}.cls-7{fill:#ffd064;}.cls-8{fill:#ffe07d;}</style></defs><g id="Layer_2" data-name="Layer 2"><g id="Layer_1-2" data-name="Layer 1"><path class="cls-1" d="M102.52,25.63V3.06A3.06,3.06,0,0,0,99.46,0H76.89L73.52,1.6H53.74L51.26,0H25.63L0,25.63V51.26l3.09,3.16V73.61L0,76.89V99.46a3.06,3.06,0,0,0,3.06,3.06H25.63L29,99.73H47.8l3.46,2.79H76.89l25.63-25.63V51.26L99.24,47.5V27.94Z"/><path class="cls-2" d="M16.14,102.52a9.8,9.8,0,0,1-.2-2V9.69L0,25.63V51.26l3.09,3.16V73.61L0,76.89V99.46a3.06,3.06,0,0,0,3.06,3.06Z"/><path class="cls-3" d="M0,51.26H25.63V76.89H0Z"/><path class="cls-4" d="M0,51.26H15.94V76.89H0Z"/><path class="cls-3" d="M51.26,51.26H76.89V76.89H51.26Z"/><path class="cls-3" d="M25.63,25.63H51.26V51.26H25.63Z"/><path class="cls-3" d="M76.89,25.63h25.63V51.26H76.89Z"/><path class="cls-3" d="M51.26,0H76.89V25.63H51.26Z"/><path class="cls-3" d="M76.89,102.52h23.38a2.25,2.25,0,0,0,2.25-2.25V76.89H76.89Z"/><path class="cls-3" d="M0,2.24V25.63H25.63V0H2.24A2.24,2.24,0,0,0,0,2.24Z"/><path class="cls-4" d="M15.94,2A9.7,9.7,0,0,1,16.14,0H2.24A2.24,2.24,0,0,0,0,2.24V25.63H15.94V2Z"/><path class="cls-3" d="M25.63,76.89H51.26v25.63H25.63Z"/><path class="cls-5" d="M97.11,106.27a3.67,3.67,0,0,0-3.61-3l-.23-.24h-7.8l-.49.24a3.68,3.68,0,0,0-3.62,3,6,6,0,0,1-2.65,3.89l.6.4H99.19l.58-.4a6,6,0,0,1-2.66-3.89Z"/><path class="cls-6" d="M87.37,106.27c.2-1.74,1.24-3,2.43-3l.34-.24H85.47l-.49.24a3.68,3.68,0,0,0-3.62,3,6,6,0,0,1-2.65,3.89l.6.4H86l-.4-.4a6.68,6.68,0,0,0,1.79-3.89Z"/><path class="cls-7" d="M101.89,110.16H76.58a2,2,0,0,0-2,2v1.13a2,2,0,0,0,2,2h25.31a2,2,0,0,0,2-2v-1.13A2,2,0,0,0,101.89,110.16Z"/><path class="cls-7" d="M101.89,110.16H86.07a2,2,0,0,0-2,2v1.13a2,2,0,0,0,2,2h15.82a2,2,0,0,0,2-2v-1.13a2,2,0,0,0-2-2Z"/><path class="cls-5" d="M84.42,113.32v-1.14a2,2,0,0,1,2-2H76.58a2,2,0,0,0-2,2v1.14a2,2,0,0,0,2,2h9.85A2,2,0,0,1,84.42,113.32Z"/><path class="cls-8" d="M93.17,103.26a3.33,3.33,0,0,0,3.3-3.49,12.71,12.71,0,0,1,1-5.63c2-4.82,4.1-12.57-.2-17.86-4.78-5.88-12.91-4-15.68-4a.55.55,0,0,0-.43.87l1.5,2a1.35,1.35,0,0,1,0,1.59l-1.12,1.53a3.54,3.54,0,0,0-.6,1.36l-.1.52a3.49,3.49,0,0,1-.89,1.71L76.8,85.23a1.47,1.47,0,0,0,.36,2.3l.48.26a2.35,2.35,0,0,0,1.47.27l1.4-.21a.28.28,0,0,1,.33.28.35.35,0,0,0,.55.29l2.39-1.56a2.94,2.94,0,0,1,1.64-.48,4,4,0,0,0,2.66-1,.82.82,0,0,1,1.34.46c.31,1.52-.15,4.16-5.15,7a6.51,6.51,0,0,0-3.21,6.82v0a4.33,4.33,0,0,0,4.29,3.5Z"/><path class="cls-7" d="M81.39,88.42l.85-.56-.13-.07-.48-.26a1.47,1.47,0,0,1-.36-2.3l3.12-3.29a3.49,3.49,0,0,0,.89-1.71l.1-.52A3.42,3.42,0,0,1,86,78.35l1.11-1.53a1.35,1.35,0,0,0,0-1.59l-1.83-2.51a.55.55,0,0,1,0-.68c-1.58.09-2.91.27-3.75.29a.55.55,0,0,0-.43.87l1.5,2a1.35,1.35,0,0,1,0,1.59l-1.12,1.53a3.54,3.54,0,0,0-.6,1.36l-.1.52a3.49,3.49,0,0,1-.89,1.71L76.8,85.23a1.47,1.47,0,0,0,.36,2.3l.48.26a2.34,2.34,0,0,0,1.47.27l1.4-.21a.28.28,0,0,1,.33.28.35.35,0,0,0,.55.29Z"/><path class="cls-7" d="M85.54,99.76v0a6.52,6.52,0,0,1,3.21-6.82c3-1.71,5.2-3.76,5.21-6.38a1.74,1.74,0,0,0-2.72-1.42L89.48,86.3c.13,1.56-.66,4-5.21,6.61a6.51,6.51,0,0,0-3.21,6.82v0a4.33,4.33,0,0,0,4.29,3.5h4.47a4.33,4.33,0,0,1-4.29-3.5Z"/><path class="cls-6" d="M85.16,82.33a1.35,1.35,0,0,1-.66-2.52L86,79a1.35,1.35,0,1,1,1.33,2.34l-1.53.86a1.34,1.34,0,0,1-.66.18Z"/></g></g></svg>