<svg xmlns="http://www.w3.org/2000/svg" viewBox="0 0 110 125.75"><defs><style>.cls-1{fill:#9ee2f8;}.cls-2{fill:#78b9eb;}.cls-3{fill:#005fe1;}.cls-4{fill:#212cbb;}.cls-5{fill:#218adc;}.cls-6{fill:#ffc250;}.cls-7{fill:#ebb044;}.cls-8{fill:#ffd064;}.cls-9{fill:#ffe07d;}</style></defs><g id="Layer_2" data-name="Layer 2"><g id="Layer_1-2" data-name="Layer 1"><path class="cls-1" d="M55,110A54.88,54.88,0,0,1,14,91.61L35.93,80.06Z"/><path class="cls-2" d="M31,50.7l.63,33.66A75.25,75.25,0,0,0,14,91.61,54.8,54.8,0,0,1,0,55Z"/><path class="cls-1" d="M26.7,55H0A54.8,54.8,0,0,1,14,18.39l24.09,2.95Z"/><path class="cls-2" d="M31.63,25.64A75.25,75.25,0,0,1,14,18.39,54.88,54.88,0,0,1,55,0Z"/><path class="cls-3" d="M55,110A54.88,54.88,0,0,0,96,91.61L74.07,80.06Z"/><path class="cls-4" d="M79,50.7l-.63,33.66A75.25,75.25,0,0,1,96,91.61,54.8,54.8,0,0,0,110,55Z"/><path class="cls-3" d="M83.3,55H110A54.8,54.8,0,0,0,96,18.39L71.92,21.34Z"/><path class="cls-4" d="M78.37,25.64A75.25,75.25,0,0,0,96,18.39,54.88,54.88,0,0,0,55,0Z"/><path class="cls-5" d="M78.37,84.36,50.7,77,55,110h0C63.61,110,72.87,99.76,78.37,84.36Z"/><path class="cls-3" d="M55,81.25h0a88.48,88.48,0,0,1,23.37,3.11A87.94,87.94,0,0,0,83.3,55L50.7,50.7Z"/><path class="cls-5" d="M50.7,24.45,55,55H83.3a87.94,87.94,0,0,0-4.93-29.36Z"/><path class="cls-3" d="M78.37,25.64C72.87,10.24,63.61,0,55,0L50.7,14.38,55,28.75A88.48,88.48,0,0,0,78.37,25.64Z"/><path class="cls-2" d="M31.63,84.36C37.13,99.76,46.39,110,55,110h0V81.25A88.48,88.48,0,0,0,31.63,84.36Z"/><path class="cls-5" d="M26.7,55a87.94,87.94,0,0,0,4.93,29.36A88.48,88.48,0,0,1,55,81.25V55Z"/><path class="cls-5" d="M31.63,25.64A88.48,88.48,0,0,0,55,28.75V0C46.39,0,37.13,10.24,31.63,25.64Z"/><path class="cls-2" d="M55,28.75a88.48,88.48,0,0,1-23.37-3.11A87.94,87.94,0,0,0,26.7,55H55Z"/><path class="cls-6" d="M88.74,116.82a3.61,3.61,0,0,0-3.57-3l-.22-.24H77.26l-.49.24a3.62,3.62,0,0,0-3.57,3,5.89,5.89,0,0,1-2.62,3.84l.59.39H90.79l.57-.39a5.92,5.92,0,0,1-2.62-3.84Z"/><path class="cls-7" d="M79.13,116.82c.2-1.73,1.22-3,2.4-3l.33-.24h-4.6l-.49.24a3.62,3.62,0,0,0-3.57,3,5.89,5.89,0,0,1-2.62,3.84l.59.39h6.59l-.4-.39a6.61,6.61,0,0,0,1.77-3.84Z"/><path class="cls-8" d="M93.46,120.66h-25a2,2,0,0,0-2,2v1.13a2,2,0,0,0,2,2h25a2,2,0,0,0,2-2v-1.13A2,2,0,0,0,93.46,120.66Z"/><path class="cls-8" d="M93.46,120.66H77.85a2,2,0,0,0-2,2v1.13a2,2,0,0,0,2,2H93.46a2,2,0,0,0,2-2v-1.13a2,2,0,0,0-2-2Z"/><path class="cls-6" d="M76.22,123.77v-1.13a2,2,0,0,1,2-2H68.48a2,2,0,0,0-2,2v1.13a2,2,0,0,0,2,2h9.73A2,2,0,0,1,76.22,123.77Z"/><path class="cls-9" d="M84.85,113.85a3.28,3.28,0,0,0,3.25-3.45,12.65,12.65,0,0,1,1-5.55c2-4.76,4-12.41-.2-17.63-4.72-5.8-12.74-4-15.48-3.89a.54.54,0,0,0-.42.86l1.49,2a1.32,1.32,0,0,1,0,1.56l-1.1,1.51a3.34,3.34,0,0,0-.59,1.35l-.1.51a3.41,3.41,0,0,1-.88,1.69L68.7,96.06a1.45,1.45,0,0,0,.36,2.27l.46.25a2.26,2.26,0,0,0,1.46.26l1.38-.2a.26.26,0,0,1,.32.27.36.36,0,0,0,.55.3l2.35-1.55a3,3,0,0,1,1.62-.47,4,4,0,0,0,2.63-1,.81.81,0,0,1,1.32.45c.31,1.5-.15,4.11-5.08,6.95a6.43,6.43,0,0,0-3.17,6.73v0a4.29,4.29,0,0,0,4.23,3.45Z"/><path class="cls-8" d="M73.23,99.21l.84-.56-.13-.06-.47-.26a1.45,1.45,0,0,1-.36-2.27l3.08-3.25a3.41,3.41,0,0,0,.88-1.69l.1-.51a3.48,3.48,0,0,1,.59-1.35l1.1-1.51a1.32,1.32,0,0,0,0-1.56l-1.8-2.48a.53.53,0,0,1,0-.67c-1.56.09-2.88.27-3.71.29a.54.54,0,0,0-.42.86l1.49,2a1.32,1.32,0,0,1,0,1.56l-1.1,1.51a3.48,3.48,0,0,0-.59,1.35l-.1.51a3.41,3.41,0,0,1-.88,1.69L68.7,96.06a1.45,1.45,0,0,0,.36,2.27l.46.26a2.32,2.32,0,0,0,1.46.25l1.38-.2a.27.27,0,0,1,.32.27.36.36,0,0,0,.55.3Z"/><path class="cls-8" d="M77.32,110.4v0a6.46,6.46,0,0,1,3.17-6.73c2.93-1.69,5.13-3.71,5.14-6.29a1.72,1.72,0,0,0-2.69-1.4l-1.72,1.17c.13,1.54-.65,3.94-5.14,6.52a6.43,6.43,0,0,0-3.17,6.73v0a4.29,4.29,0,0,0,4.23,3.45h4.41a4.29,4.29,0,0,1-4.23-3.45Z"/><path class="cls-7" d="M77,93.19a1.31,1.31,0,0,1-1.16-.68,1.33,1.33,0,0,1,.5-1.81l1.51-.85a1.33,1.33,0,0,1,1.31,2.32L77.6,93a1.4,1.4,0,0,1-.65.17Z"/></g></g></svg>